<?xml version="1.0" standalone="no"?>
<!DOCTYPE svg PUBLIC "-//W3C//DTD SVG 20010904//EN"
 "http://www.w3.org/TR/2001/REC-SVG-20010904/DTD/svg10.dtd">
<svg version="1.0" xmlns="http://www.w3.org/2000/svg"
 width="1280.000000pt" height="1707.000000pt" viewBox="0 0 1280.000000 1707.000000"
 preserveAspectRatio="xMidYMid meet">
<metadata>
Created by potrace 1.16, written by Peter Selinger 2001-2019
</metadata>
<g transform="translate(0.000000,1707.000000) scale(0.100000,-0.100000)"
fill="#000000" stroke="none">
<path d="M7353 11340 c-116 -15 -227 -47 -401 -116 -213 -84 -262 -97 -399
-98 -62 -1 -108 -3 -103 -4 6 -2 1 -11 -11 -20 -13 -11 -22 -34 -26 -62 -3
-25 -10 -49 -17 -55 -13 -11 -32 -50 -41 -82 -4 -13 -11 -23 -16 -23 -5 0 -9
-7 -9 -16 0 -9 -5 -12 -12 -8 -10 6 -10 5 -1 -7 8 -9 9 -20 3 -29 -6 -8 -10
-30 -10 -47 0 -18 -4 -33 -9 -33 -13 0 -34 -57 -25 -71 5 -8 2 -10 -8 -6 -12
4 -14 1 -11 -14 4 -14 0 -19 -13 -19 -18 -1 -18 -1 -2 -14 15 -11 4 -16 -85
-41 -598 -165 -930 -385 -1080 -714 -42 -93 -76 -236 -83 -349 l-6 -97 54 115
c177 378 355 561 696 718 190 88 430 163 742 232 217 48 259 60 525 147 307
101 517 184 552 219 8 8 25 17 39 20 13 3 24 9 24 13 0 4 11 14 25 21 15 8 23
20 20 27 -2 8 0 11 5 8 6 -3 10 -1 10 4 0 19 -27 12 -44 -11 -9 -13 -15 -17
-13 -8 1 8 8 20 16 26 24 19 -4 25 -43 9 -75 -31 -47 -12 64 45 115 58 251
146 256 165 4 15 -84 83 -152 115 -117 56 -265 78 -411 60z"/>
<path d="M7968 10998 c-104 -212 -340 -374 -738 -507 -69 -23 -231 -71 -360
-107 -648 -180 -762 -215 -968 -301 -62 -26 -122 -56 -133 -66 -10 -10 -19
-15 -19 -12 0 14 -38 -17 -43 -35 -4 -17 -2 -18 14 -10 15 9 18 8 12 -7 -3
-10 -13 -24 -22 -31 -14 -11 -14 -14 -1 -22 10 -6 15 -27 15 -72 0 -35 4 -66
9 -69 5 -4 6 -14 3 -23 -5 -12 -14 -15 -32 -10 -15 4 -25 2 -25 -5 0 -6 14
-11 31 -11 l30 0 -20 -26 c-12 -15 -21 -31 -21 -37 0 -6 -6 -18 -14 -26 -13
-14 -11 -16 20 -18 39 -2 40 0 18 22 -9 9 -13 19 -10 23 7 6 21 -11 29 -32 2
-5 23 -2 46 8 24 9 45 15 47 13 2 -2 -22 -14 -54 -27 -400 -163 -632 -398
-631 -640 l0 -45 14 33 c55 126 200 288 345 384 216 143 462 236 977 369 707
181 956 273 1210 445 152 103 352 272 338 286 -3 3 4 13 15 23 28 25 25 36 -6
24 -15 -5 -29 -7 -32 -4 -3 2 -12 -1 -20 -8 -13 -9 -14 -9 -8 1 17 28 -11 9
-51 -35 -40 -44 -39 -42 7 17 123 156 176 341 136 474 -14 45 -59 116 -74 116
-5 0 -19 -24 -34 -52z"/>
<path d="M5585 11029 c-158 -23 -279 -82 -380 -183 -146 -148 -195 -343 -148
-588 17 -89 33 -116 33 -55 0 47 26 148 56 220 62 149 209 320 364 424 99 66
170 102 335 168 52 21 -142 31 -260 14z"/>
<path d="M8235 10522 c-194 -421 -616 -742 -1260 -957 -174 -58 -315 -96 -567
-150 -326 -71 -498 -121 -499 -144 0 -11 -2 -12 -6 -3 -11 28 -19 8 -20 -52 0
-34 -6 -73 -12 -85 -8 -14 -8 -21 -1 -21 12 0 14 -149 1 -169 -5 -7 -13 -11
-19 -7 -5 3 -12 -4 -15 -16 -7 -24 3 -41 10 -20 3 6 12 12 20 12 13 0 15 -9
11 -49 -3 -27 -1 -56 4 -65 6 -10 5 -16 -2 -16 -5 0 -10 -5 -10 -11 0 -8 5 -7
15 1 9 7 14 19 11 26 -3 7 -1 14 3 16 4 2 22 24 40 51 17 26 34 47 37 47 3 0
-3 -12 -14 -27 -109 -154 -182 -458 -182 -754 0 -121 14 -249 31 -282 17 -31
-41 -41 -208 -35 -16 1 -62 -4 -103 -11 -41 -7 -102 -17 -135 -22 -33 -4 -85
-15 -115 -24 -30 -9 -83 -20 -118 -25 -77 -11 -151 -55 -178 -106 l-19 -36 44
-39 c24 -21 52 -39 62 -39 10 0 21 -4 24 -10 3 -5 23 -10 44 -10 20 0 60 -6
87 -14 53 -16 91 -19 409 -39 116 -8 215 -10 221 -5 6 4 51 6 100 3 49 -3 143
-6 209 -5 135 1 698 26 790 35 33 3 94 8 135 11 41 3 95 9 120 14 25 5 86 12
135 15 99 8 205 29 214 43 6 9 84 35 140 47 87 18 159 72 157 116 -1 29 -40
67 -75 76 -14 3 -30 9 -36 13 -10 7 -85 18 -185 26 -80 6 -123 14 -137 26 -7
6 -22 8 -33 5 -26 -7 -25 -2 5 37 95 125 203 440 284 829 72 342 126 474 393
952 192 345 257 523 261 713 2 94 -10 222 -21 222 -4 -1 -25 -40 -47 -88z
m-1540 -1461 c128 -45 216 -147 263 -304 29 -100 40 -323 24 -487 -10 -92 -9
-116 8 -192 10 -48 30 -114 42 -145 l24 -58 -311 -3 c-170 -2 -326 -4 -345 -5
-19 0 -55 0 -80 1 -50 3 -278 -13 -383 -26 -53 -7 -67 -6 -63 4 14 37 36 173
46 284 43 498 184 758 431 800 38 7 99 10 137 8 49 -2 69 0 69 9 0 7 -6 14
-14 17 -7 3 -13 16 -13 29 0 14 -7 30 -15 37 -8 7 -15 19 -15 27 0 7 -10 18
-22 23 -47 21 155 2 217 -19z"/>
<path d="M4870 7113 c50 -10 50 -11 50 -252 0 -238 -3 -254 -45 -264 -24 -6
185 -12 265 -9 118 6 200 54 247 146 22 42 27 64 27 126 0 85 -20 134 -75 188
-56 55 -102 65 -309 68 -102 1 -174 0 -160 -3z m347 -59 c68 -42 104 -105 110
-191 9 -119 -28 -196 -112 -234 -68 -31 -182 -23 -207 15 -10 15 -10 430 0
440 4 5 42 6 84 4 63 -4 86 -10 125 -34z"/>
<path d="M6139 7118 c-2 -3 -6 -29 -11 -63 -2 -11 2 -20 9 -20 6 0 15 -3 19
-7 6 -7 -2 -10 -23 -7 -14 1 -21 -38 -15 -87 5 -40 7 -44 12 -24 4 14 3 35 -1
47 -5 13 -3 25 4 32 14 11 31 3 35 -16 3 -20 -16 -15 -21 5 -3 10 -5 6 -6 -10
0 -16 3 -28 7 -28 5 0 17 -18 27 -40 10 -22 22 -37 27 -34 5 3 5 11 -1 18 -8
9 -6 18 5 32 14 18 15 18 5 -3 -8 -15 -8 -22 1 -25 8 -3 7 -11 -2 -28 -11 -22
-11 -23 1 -13 12 10 14 6 13 -23 -1 -19 2 -34 8 -34 5 0 7 -4 4 -9 -3 -5 1
-14 9 -21 8 -7 15 -18 15 -24 0 -20 64 -136 71 -128 4 4 24 41 44 82 84 172
130 260 136 260 4 0 17 -78 29 -172 13 -95 28 -176 34 -180 6 -4 38 -7 71 -6
33 0 50 3 37 5 -12 2 -29 14 -36 26 -8 12 -28 123 -46 247 -17 124 -34 232
-37 240 -5 15 -143 -251 -143 -277 0 -7 -4 -13 -9 -13 -5 0 -17 -20 -26 -45
-23 -60 -42 -75 -51 -41 -3 14 -10 26 -15 26 -5 0 -9 5 -9 11 0 7 -10 32 -22
56 l-22 44 -19 -23 c-16 -20 -17 -21 -8 -2 7 15 7 25 -2 34 -9 10 -9 11 2 5 9
-5 12 -4 7 6 -3 8 -9 22 -12 32 -4 9 -11 17 -16 17 -5 0 -6 5 -3 10 7 11 -49
103 -57 94 -3 -3 -8 3 -12 12 -4 12 -2 15 9 10 13 -5 13 -3 0 18 -8 12 -12 26
-8 29 3 4 3 7 0 7 -4 0 -8 -1 -8 -2z"/>
<path d="M6810 7107 l25 -13 3 -224 c1 -124 0 -235 -3 -247 -3 -13 -14 -23
-28 -25 -12 -2 25 -4 83 -4 58 0 93 1 78 3 -14 3 -31 10 -37 17 -8 9 -11 89
-9 247 l3 233 25 13 c22 11 13 13 -70 13 -83 0 -92 -2 -70 -13z"/>
<path d="M7115 7113 c44 -11 45 -15 45 -252 0 -237 -3 -255 -44 -263 -10 -1
57 -4 149 -6 182 -3 185 -2 185 52 l0 28 -19 -23 c-15 -19 -30 -24 -84 -27
-56 -4 -68 -1 -86 17 -20 20 -21 31 -21 235 0 223 1 228 45 239 11 2 -27 5
-85 5 -58 0 -96 -3 -85 -5z"/>
<path d="M7546 7108 c20 -5 34 -16 38 -30 8 -31 6 -384 -2 -433 -6 -30 -13
-41 -32 -46 -14 -4 48 -7 136 -8 178 -1 175 -2 173 62 0 29 -1 30 -9 10 -12
-31 -41 -43 -99 -43 -74 0 -81 11 -81 136 l0 104 49 0 c65 0 98 -14 104 -42 2
-13 5 0 6 27 l1 50 -80 -3 -80 -4 0 101 0 101 49 0 c64 0 99 -14 110 -42 7
-19 9 -16 12 22 l4 46 -165 0 c-103 0 -153 -3 -134 -8z"/>
<path d="M7222 6380 c2 -22 2 -40 0 -40 -1 0 -13 7 -26 15 -41 27 -96 -9 -96
-63 0 -11 10 -32 21 -47 18 -22 27 -26 53 -21 17 4 39 7 49 7 15 0 17 12 17
95 0 62 -4 94 -11 94 -7 0 -10 -15 -7 -40z"/>
<path d="M6633 6360 c-47 -19 -56 -78 -18 -115 30 -31 65 -32 93 -2 52 56 -5
145 -75 117z"/>
</g>
</svg>
