<?xml version="1.0" standalone="no"?>
<!DOCTYPE svg PUBLIC "-//W3C//DTD SVG 20010904//EN"
 "http://www.w3.org/TR/2001/REC-SVG-20010904/DTD/svg10.dtd">
<svg version="1.0" xmlns="http://www.w3.org/2000/svg"
 width="2480.000000pt" height="3508.000000pt" viewBox="0 0 2480.000000 3508.000000"
 preserveAspectRatio="xMidYMid meet">
<metadata>
Created by potrace 1.16, written by Peter Selinger 2001-2019
</metadata>
<g transform="translate(0.000000,3508.000000) scale(0.100000,-0.100000)"
fill="#000000" stroke="none">
<path d="M12955 30531 c-59 -36 -166 -167 -185 -226 -10 -31 -6 -43 64 -184
l76 -150 -41 -268 c-23 -147 -41 -297 -40 -332 1 -36 -5 -99 -13 -140 -8 -42
-17 -116 -21 -166 -4 -49 -15 -148 -25 -218 -14 -99 -16 -143 -9 -188 11 -69
-3 -116 -46 -145 -109 -77 -112 -95 -24 -158 57 -40 58 -42 59 -91 0 -27 -10
-105 -22 -173 -20 -109 -21 -132 -11 -211 18 -141 52 -182 122 -146 33 17 89
95 123 171 l19 44 -32 65 -31 64 7 144 c10 200 12 211 55 217 36 5 472 219
532 261 65 46 230 205 254 244 60 104 85 229 85 435 -1 256 -40 393 -173 596
-152 234 -294 376 -477 477 -68 37 -133 67 -145 67 -11 0 -30 7 -40 15 -25 19
-25 19 -61 -4z m311 -532 c120 -131 171 -199 219 -293 23 -45 50 -94 59 -111
9 -16 16 -38 16 -47 0 -10 10 -53 22 -95 27 -99 30 -261 5 -343 -36 -121 -178
-261 -393 -387 -156 -91 -184 -102 -204 -78 -11 14 -11 38 3 153 10 75 29 193
43 262 15 72 23 140 20 160 -3 21 2 64 15 107 37 133 109 468 109 508 0 51
-44 144 -116 247 -30 43 -52 83 -49 88 4 6 40 -8 86 -33 62 -34 97 -63 165
-138z"/>
<path d="M6069 30378 c-92 -48 -131 -92 -193 -215 -88 -176 -139 -328 -240
-713 -75 -289 -97 -396 -116 -575 -6 -55 -17 -139 -26 -187 -14 -79 -21 -93
-74 -166 -75 -102 -137 -146 -242 -172 -88 -22 -179 26 -193 103 -11 56 -1 78
78 179 93 117 151 204 187 277 33 67 70 202 70 258 0 54 -28 143 -52 170 -45
48 -142 42 -206 -13 -47 -40 -156 -192 -200 -279 -47 -95 -92 -242 -106 -347
-12 -93 -15 -100 -54 -142 -22 -24 -48 -58 -57 -76 -16 -30 -15 -34 11 -103
15 -40 29 -74 31 -76 2 -3 10 5 19 17 17 24 46 29 62 9 6 -7 24 -50 41 -97 17
-46 43 -97 59 -113 61 -65 166 -85 251 -47 24 11 51 20 61 20 32 0 137 79 200
150 34 39 68 70 75 70 9 0 15 -29 20 -97 7 -101 26 -222 45 -291 7 -28 26 -54
61 -86 94 -85 152 -74 281 52 48 47 111 120 139 164 51 77 52 78 94 78 54 0
104 35 176 125 51 63 112 133 207 240 24 27 67 82 97 124 29 42 76 98 104 125
46 45 53 49 78 40 15 -5 36 -25 47 -44 18 -31 21 -51 20 -165 -1 -140 -22
-255 -71 -390 -63 -173 -63 -217 -3 -247 19 -10 47 -18 61 -18 31 0 126 66
301 207 117 94 144 123 183 196 31 58 106 148 118 144 7 -2 15 -44 20 -108 18
-246 50 -345 122 -375 47 -19 81 -18 132 7 57 27 108 86 238 273 60 86 112
156 115 156 9 0 36 -62 52 -120 17 -60 81 -126 132 -135 52 -10 92 4 186 67
84 55 82 52 65 115 -3 10 1 5 9 -12 21 -43 19 -70 -8 -113 -13 -20 -29 -55
-36 -76 -17 -54 -8 -161 18 -195 23 -32 82 -56 116 -47 51 13 177 109 253 194
159 176 267 282 274 270 4 -6 11 -39 14 -72 15 -130 56 -203 130 -231 103 -40
191 5 320 161 44 52 105 124 135 158 121 137 151 174 194 235 57 83 144 171
168 171 29 0 65 -43 78 -91 27 -97 -6 -348 -67 -514 -63 -173 -63 -217 -3
-247 19 -10 47 -18 61 -18 52 0 335 220 483 377 59 62 105 103 114 101 23 -4
29 -47 26 -188 -3 -142 8 -184 53 -201 65 -25 159 11 205 80 17 25 62 75 100
110 38 35 86 89 108 120 48 71 135 156 149 147 25 -16 -5 -222 -54 -364 -97
-283 -91 -269 -189 -401 -126 -170 -256 -370 -325 -500 -7 -14 -22 -35 -32
-46 -10 -12 -37 -55 -59 -97 -68 -130 -53 -199 42 -184 89 14 173 80 269 208
63 85 138 217 278 493 125 246 190 335 400 542 l173 172 -27 76 c-15 42 -31
74 -35 73 -4 -2 -35 -37 -70 -78 -119 -142 -180 -196 -180 -162 0 12 75 267
95 322 32 89 95 352 95 395 0 63 -35 79 -122 55 -30 -9 -53 -29 -110 -100
-207 -253 -371 -441 -431 -494 -57 -50 -69 -57 -83 -45 -20 17 -14 66 37 273
47 191 49 237 14 271 -51 52 -106 23 -210 -110 -72 -92 -90 -112 -358 -373
-105 -103 -163 -152 -174 -150 -28 6 -20 85 22 218 56 177 57 323 4 467 -29
76 -173 229 -226 239 -48 9 -104 -18 -176 -87 l-60 -57 6 -57 c5 -50 2 -63
-28 -121 -44 -85 -106 -170 -194 -268 -39 -43 -71 -83 -71 -88 0 -4 -17 -27
-38 -51 -21 -23 -46 -55 -56 -70 -26 -42 -59 -54 -90 -33 -54 35 -61 58 -66
227 -4 136 -8 160 -24 178 -40 44 -116 14 -198 -79 -29 -33 -123 -133 -209
-220 -138 -141 -189 -182 -189 -151 0 23 98 171 160 242 38 43 86 105 107 136
20 32 58 81 83 110 25 29 72 84 105 123 33 40 93 107 133 150 73 79 79 93 73
165 -3 27 -38 55 -70 55 -36 0 -126 -44 -181 -88 -38 -30 -224 -216 -408 -407
-26 -27 -60 -70 -74 -95 -15 -26 -56 -68 -96 -99 -45 -34 -77 -68 -87 -91 -29
-65 -128 -78 -150 -21 -10 24 -35 220 -35 272 0 67 -28 99 -84 99 -59 0 -90
-27 -135 -119 -82 -167 -241 -403 -299 -443 -24 -16 -49 -27 -56 -25 -15 6
-26 74 -26 161 0 113 21 240 77 459 46 181 53 223 44 243 -17 38 -35 39 -105
6 -62 -29 -66 -33 -122 -129 -31 -54 -114 -183 -183 -286 -69 -103 -135 -201
-146 -218 -11 -16 -68 -80 -126 -140 -123 -128 -145 -136 -142 -54 1 28 18
102 38 165 56 177 57 323 4 467 -29 76 -173 229 -226 239 -48 9 -104 -18 -176
-87 l-60 -57 6 -57 c5 -50 2 -63 -28 -121 -44 -85 -106 -170 -194 -268 -39
-43 -71 -82 -71 -87 0 -11 -50 -69 -61 -69 -17 0 -9 44 21 121 34 88 47 172
32 210 -11 27 -12 27 -103 25 l-92 -2 -46 -50 c-63 -68 -134 -210 -157 -309
-10 -44 -17 -87 -15 -95 1 -8 18 -30 37 -48 29 -28 35 -39 29 -60 -22 -90
-134 -145 -184 -91 -37 40 -75 253 -69 387 l5 97 127 249 c69 137 126 261 126
275 0 13 9 34 19 45 23 24 164 343 191 431 33 106 109 388 125 463 19 93 20
251 1 297 -29 68 -74 71 -187 13z m-43 -546 c-14 -31 -42 -122 -61 -201 -45
-179 -194 -581 -216 -581 -40 0 67 368 172 589 28 58 58 136 69 172 10 37 24
77 30 89 11 21 13 21 22 7 6 -12 2 -34 -16 -75z m-911 -832 c10 -30 -12 -83
-60 -148 -23 -32 -48 -68 -54 -80 -18 -34 -41 -28 -41 11 0 62 100 237 135
237 8 0 17 -9 20 -20z"/>
<path d="M4240 30400 c-8 -5 -28 -9 -45 -8 -72 4 -216 -71 -286 -149 -79 -88
-165 -232 -203 -343 -28 -80 -57 -261 -49 -304 3 -14 -2 -63 -11 -108 -8 -46
-20 -142 -26 -214 -13 -164 -20 -188 -70 -239 -48 -48 -106 -163 -91 -178 7
-7 25 -4 55 7 25 10 49 15 54 12 11 -6 7 -232 -6 -326 -13 -101 -7 -749 7
-793 15 -45 54 -77 93 -77 50 0 65 53 71 255 6 192 21 391 42 575 8 69 12 135
9 147 -9 32 25 206 47 242 16 26 25 31 58 31 21 0 58 9 82 19 26 12 99 26 177
35 73 9 137 18 142 21 4 3 50 -6 102 -20 130 -35 135 -34 158 21 16 35 20 68
20 145 0 92 -2 102 -24 124 -30 30 -99 49 -151 40 -22 -3 -76 -10 -120 -15
-91 -9 -286 -58 -359 -89 -31 -14 -53 -18 -59 -12 -13 13 -6 64 47 335 50 256
107 431 150 462 38 27 148 55 206 52 30 -1 64 3 75 9 16 9 35 3 104 -30 79
-39 84 -40 97 -23 16 23 33 100 44 208 10 104 -1 144 -50 172 -34 20 -81 23
-217 14 -16 -1 -35 1 -43 5 -8 4 -22 2 -30 -3z"/>
<path d="M19510 29213 c-26 -9 -60 -45 -143 -148 -44 -55 -104 -126 -134 -157
-29 -31 -53 -61 -53 -67 0 -5 -31 -44 -70 -85 -38 -42 -70 -80 -70 -85 0 -5
-36 -39 -80 -75 -46 -38 -88 -83 -100 -105 -34 -68 -93 -98 -102 -53 -2 10 7
35 19 57 39 71 66 208 60 305 -6 95 -35 186 -70 217 -64 59 -125 66 -222 26
-36 -14 -68 -24 -71 -20 -3 3 2 27 12 53 17 45 17 47 -1 60 -46 34 -114 9
-171 -63 -21 -27 -68 -82 -105 -123 -36 -41 -74 -88 -85 -105 -31 -50 -181
-217 -240 -267 -31 -27 -70 -69 -87 -95 -18 -26 -37 -48 -43 -50 -16 -5 -62
35 -90 78 -13 21 -44 84 -69 140 -24 55 -63 123 -86 150 -47 56 -68 60 -138
29 -53 -24 -221 -186 -257 -247 -45 -78 -66 -47 -36 54 30 100 42 174 49 303
9 176 -20 242 -97 225 -48 -10 -155 -119 -277 -278 -125 -164 -199 -247 -219
-247 -18 0 -18 18 0 89 24 91 38 256 27 297 -11 41 -37 74 -58 74 -7 0 -39
-13 -71 -29 -47 -24 -73 -49 -152 -146 -52 -65 -121 -150 -153 -189 -32 -39
-92 -121 -133 -183 -76 -114 -106 -146 -130 -136 -22 8 -21 36 3 78 39 71 66
208 60 305 -6 95 -35 186 -70 217 -64 59 -125 66 -222 26 -36 -14 -68 -24 -71
-20 -3 3 2 27 12 53 17 45 17 47 -1 60 -46 34 -114 9 -171 -63 -21 -27 -68
-82 -105 -123 -36 -41 -74 -88 -85 -105 -32 -51 -182 -217 -242 -269 -31 -27
-65 -62 -75 -78 -10 -16 -69 -81 -132 -145 -130 -131 -151 -140 -148 -58 1 28
18 102 38 165 56 177 57 323 4 467 -29 76 -173 229 -226 239 -48 9 -104 -18
-176 -87 l-60 -57 6 -57 c5 -50 2 -63 -28 -121 -44 -84 -106 -171 -189 -262
-36 -40 -73 -86 -81 -102 -15 -29 -14 -35 12 -105 25 -67 43 -94 43 -65 0 6
26 39 58 73 102 112 151 171 196 236 57 83 144 171 168 171 29 0 65 -43 78
-91 27 -97 -6 -348 -67 -514 -63 -173 -63 -217 -3 -247 19 -10 47 -18 61 -18
56 0 390 264 472 373 69 90 142 161 156 153 15 -10 14 -44 -5 -143 -16 -88
-11 -142 20 -217 22 -52 82 -113 131 -131 40 -16 48 -16 115 -1 113 26 233
105 300 197 l26 37 28 -34 c36 -46 83 -47 150 -3 44 29 166 162 166 181 0 4
28 42 63 85 34 43 73 94 85 114 12 21 34 45 49 54 25 17 27 17 40 0 17 -24 11
-58 -42 -275 -67 -273 -67 -283 1 -296 32 -6 40 -3 76 32 22 22 110 135 196
253 222 304 330 417 363 384 18 -18 -16 -272 -57 -436 -45 -179 -52 -247 -30
-270 10 -9 31 -17 49 -17 42 0 88 51 227 256 125 183 194 265 240 284 44 18
82 -9 162 -114 141 -188 203 -225 297 -177 37 20 60 41 184 175 92 99 101 86
67 -103 -24 -139 45 -285 155 -326 40 -16 48 -16 115 -1 113 26 233 105 300
197 l26 37 28 -34 c36 -46 83 -47 149 -3 50 33 128 118 170 186 32 50 108 135
281 311 173 175 195 176 182 3 -15 -192 -40 -341 -57 -341 -5 0 -15 11 -21 25
-17 38 -61 34 -104 -9 l-35 -35 5 -138 c3 -83 12 -160 22 -193 8 -30 19 -72
24 -93 12 -58 20 -61 83 -33 42 18 88 56 189 154 73 72 160 152 193 178 33 27
66 57 74 68 8 11 23 28 34 39 18 18 18 20 -9 99 l-28 80 -104 -111 c-101 -108
-132 -130 -132 -93 0 9 25 109 55 222 84 311 122 633 82 694 -28 43 -99 66
-147 49z m-3868 -454 c108 -29 97 -220 -21 -397 -32 -48 -77 -104 -99 -124
-68 -61 -163 -73 -197 -25 -23 32 -18 123 11 223 31 108 42 127 91 150 26 13
46 34 62 64 66 125 75 131 153 109z m2910 0 c108 -29 97 -220 -21 -397 -32
-48 -77 -104 -99 -124 -68 -61 -163 -73 -197 -25 -22 32 -19 119 9 220 29 106
43 129 93 153 26 13 46 34 62 64 66 125 75 131 153 109z"/>
<path d="M6458 25317 c-94 -27 -161 -98 -174 -184 -15 -104 43 -184 176 -245
132 -61 153 -74 178 -109 44 -63 20 -158 -50 -196 -49 -27 -177 -24 -242 5
-27 12 -50 22 -52 22 -2 0 -9 -19 -16 -41 -15 -53 -4 -62 100 -85 161 -36 309
12 362 117 44 85 35 184 -22 253 -22 27 -64 53 -153 96 -138 66 -175 100 -175
158 0 110 124 163 266 114 l52 -18 11 37 c15 50 16 48 -25 65 -50 21 -179 27
-236 11z"/>
<path d="M7453 25319 c-153 -30 -270 -135 -314 -282 -28 -91 -23 -244 10 -329
65 -167 257 -262 469 -231 42 6 90 16 105 22 26 10 28 14 22 44 -10 46 -18 51
-62 36 -58 -20 -198 -17 -262 5 -128 44 -199 173 -189 340 7 101 34 168 91
224 82 80 211 110 335 78 35 -9 65 -16 67 -16 3 0 9 19 15 41 14 50 11 53 -75
68 -70 13 -151 13 -212 0z"/>
<path d="M11925 25320 c-83 -17 -155 -52 -209 -101 -104 -95 -141 -193 -134
-354 4 -87 9 -111 35 -167 60 -129 155 -197 306 -220 86 -13 225 -1 302 25
l40 14 3 201 2 202 -140 0 -140 0 0 -45 0 -45 85 0 85 0 0 -125 0 -124 -42
-12 c-24 -6 -80 -9 -125 -7 -201 11 -315 151 -300 368 16 246 226 364 503 285
17 -5 22 0 32 32 6 20 8 41 4 45 -15 15 -146 38 -207 37 -33 -1 -78 -5 -100
-9z"/>
<path d="M13483 25319 c-153 -30 -270 -135 -314 -282 -28 -91 -23 -244 10
-329 65 -167 257 -262 469 -231 42 6 90 16 105 22 26 10 28 14 22 44 -10 46
-18 51 -62 36 -58 -20 -198 -17 -262 5 -128 44 -199 173 -189 340 7 101 34
168 91 224 82 80 211 110 335 78 35 -9 65 -16 67 -16 3 0 9 19 15 41 14 50 11
53 -75 68 -70 13 -151 13 -212 0z"/>
<path d="M14382 25315 c-67 -19 -97 -35 -147 -78 -153 -133 -183 -433 -60
-615 68 -99 203 -161 331 -149 220 21 354 183 354 432 0 198 -83 340 -233 397
-69 26 -177 32 -245 13z m203 -99 c104 -48 165 -165 165 -317 0 -141 -62 -262
-159 -311 -128 -65 -272 -14 -340 121 -66 131 -47 338 41 445 68 82 193 109
293 62z"/>
<path d="M16385 25323 c-16 -2 -40 -6 -52 -8 l-23 -5 0 -415 0 -415 55 0 55 0
0 168 0 167 93 1 c114 1 187 26 246 86 113 113 84 322 -54 391 -64 31 -203 45
-320 30z m262 -109 c72 -53 92 -136 54 -220 -29 -65 -76 -87 -188 -92 l-93 -4
0 172 0 172 99 -4 c82 -2 105 -7 128 -24z"/>
<path d="M8365 25308 c-3 -7 -20 -58 -39 -113 -19 -55 -81 -239 -140 -408
l-105 -308 56 3 56 3 45 133 44 132 148 0 148 0 44 -132 45 -133 56 -3 c31 -2
57 0 57 3 0 3 -64 192 -141 420 l-142 415 -64 0 c-42 0 -65 -4 -68 -12z m75
-116 c0 -10 27 -95 59 -190 l59 -172 -128 0 -128 0 59 178 c32 97 59 185 59
195 0 10 5 15 10 12 6 -3 10 -14 10 -23z"/>
<path d="M9160 24900 l0 -420 235 0 235 0 0 45 0 45 -180 0 -180 0 0 375 0
375 -55 0 -55 0 0 -420z"/>
<path d="M10000 24900 l0 -420 55 0 55 0 0 420 0 420 -55 0 -55 0 0 -420z"/>
<path d="M10560 24900 l0 -420 51 0 51 0 -4 350 c-1 193 -2 350 -1 350 1 0 21
-36 44 -81 23 -44 117 -200 209 -347 l168 -267 56 -3 56 -3 0 421 0 420 -51 0
-51 0 4 -344 c1 -189 0 -342 -4 -339 -5 2 -8 8 -8 14 0 18 -104 196 -252 430
l-152 239 -58 0 -58 0 0 -420z"/>
<path d="M15250 25048 c0 -350 13 -420 92 -499 56 -55 110 -73 218 -74 84 0
102 3 152 28 67 33 110 81 140 157 21 52 23 74 26 358 l4 302 -56 0 -55 0 -3
-302 c-3 -295 -4 -304 -27 -351 -32 -65 -85 -100 -160 -105 -109 -8 -186 50
-210 158 -6 25 -11 170 -11 323 l0 277 -55 0 -55 0 0 -272z"/>
<path d="M17230 24900 l0 -420 235 0 235 0 0 45 0 45 -180 0 -180 0 0 375 0
375 -55 0 -55 0 0 -420z"/>
<path d="M18070 24900 l0 -420 235 0 235 0 0 45 0 45 -180 0 -180 0 0 155 0
155 160 0 160 0 0 45 0 45 -160 0 -160 0 0 130 0 130 170 0 170 0 0 45 0 45
-225 0 -225 0 0 -420z"/>
<path d="M10088 23817 c-140 -40 -206 -168 -149 -293 24 -53 64 -82 186 -139
146 -68 175 -101 175 -202 0 -71 -29 -120 -87 -149 -56 -28 -182 -26 -247 4
-39 17 -51 20 -58 10 -16 -26 -7 -40 40 -61 68 -31 229 -32 287 0 51 27 90 68
109 115 20 46 21 138 3 181 -22 51 -90 104 -200 156 -57 27 -115 62 -132 80
-27 30 -30 38 -30 102 0 68 1 72 37 104 20 19 56 39 79 45 50 14 128 6 172
-16 31 -17 43 -11 49 21 2 15 -6 22 -33 32 -60 19 -150 24 -201 10z"/>
<path d="M11811 23811 c-24 -3 -48 -13 -52 -21 -11 -18 -159 -803 -153 -809 2
-2 54 -8 116 -13 136 -12 284 2 377 33 78 26 173 98 217 162 95 138 119 350
54 476 -21 42 -92 111 -138 135 -78 40 -273 57 -421 37z m297 -158 c20 -10 50
-35 66 -56 30 -38 31 -41 31 -145 -1 -124 -18 -173 -85 -246 -55 -60 -124 -88
-229 -94 l-84 -5 6 29 c3 16 27 142 53 281 36 191 52 253 63 257 31 10 144 -4
179 -21z"/>
<path d="M12663 23811 c-24 -4 -45 -10 -49 -14 -3 -3 -39 -181 -80 -394 -40
-213 -76 -398 -79 -410 -5 -23 -4 -23 84 -23 l90 0 10 53 c17 84 51 268 51
273 0 2 25 4 55 4 66 0 100 -26 109 -81 6 -35 26 -220 26 -239 0 -6 36 -10 96
-10 81 0 95 2 90 15 -3 8 -10 66 -16 127 -14 143 -33 211 -65 236 l-24 19 27
12 c157 70 211 242 111 356 -52 59 -116 78 -264 81 -71 1 -149 -1 -172 -5z
m242 -145 c39 -17 55 -42 55 -89 0 -79 -75 -137 -178 -137 -61 0 -64 1 -59 23
3 12 13 62 22 112 9 49 19 93 21 97 8 13 102 9 139 -6z"/>
<path d="M8908 23473 c-3 -315 -4 -341 -23 -377 -33 -65 -64 -81 -156 -81 -60
1 -80 -2 -84 -14 -10 -25 13 -35 84 -39 123 -7 195 45 226 163 12 47 15 122
15 372 l0 313 -29 0 -30 0 -3 -337z"/>
<path d="M9162 23503 c5 -347 11 -383 75 -454 50 -55 105 -81 184 -87 135 -9
232 45 285 160 l29 63 3 313 3 312 -30 0 -31 0 0 -287 c0 -160 -5 -308 -11
-333 -13 -60 -50 -114 -101 -147 -36 -25 -51 -28 -119 -28 -70 0 -81 3 -120
30 -95 67 -109 126 -109 488 l0 277 -31 0 -31 0 4 -307z"/>
<path d="M10410 23785 l0 -25 135 0 135 0 0 -395 0 -395 30 0 30 0 0 395 0
395 140 0 140 0 0 25 0 25 -305 0 -305 0 0 -25z"/>
<path d="M11410 23804 c0 -11 -151 -808 -155 -822 -4 -10 16 -12 87 -10 l92 3
77 405 c43 223 78 411 78 418 1 9 -23 12 -89 12 -49 0 -90 -3 -90 -6z"/>
<path d="M15595 23798 c-5 -15 -155 -809 -155 -820 0 -5 39 -8 88 -8 l87 0 27
143 27 142 42 38 c23 21 46 34 50 30 4 -4 37 -84 72 -178 l65 -170 97 -3 c90
-3 97 -1 92 15 -2 10 -46 118 -96 241 l-92 223 153 162 c84 89 160 170 167
180 13 16 7 17 -96 17 l-110 0 -149 -179 c-82 -99 -150 -176 -152 -171 -2 4
11 80 27 167 17 88 31 165 31 171 0 17 -169 17 -175 0z"/>
<path d="M13688 23790 c-26 -5 -70 -16 -98 -25 -56 -18 -57 -22 -39 -105 9
-42 14 -50 27 -44 10 4 47 14 85 21 86 19 146 4 161 -40 21 -58 -45 -113 -148
-124 -61 -6 -63 -8 -72 -89 l-7 -54 47 0 c129 0 192 -99 112 -175 -53 -50
-131 -58 -237 -25 -35 10 -67 16 -70 12 -4 -4 -16 -34 -28 -67 -21 -56 -21
-60 -5 -72 30 -22 85 -34 180 -40 111 -7 207 18 276 70 135 103 142 281 14
353 l-39 22 44 19 c83 37 139 130 125 206 -21 114 -169 185 -328 157z"/>
<path d="M14433 23790 c-119 -25 -217 -124 -273 -280 -76 -206 -59 -421 40
-503 63 -53 193 -61 280 -17 140 70 239 277 243 505 2 118 -16 184 -66 235
-53 55 -138 78 -224 60z m86 -159 c76 -76 -12 -473 -114 -519 -39 -18 -59 -15
-86 14 -22 24 -24 33 -24 127 1 154 57 326 123 378 32 24 77 24 101 0z"/>
<path d="M15099 23787 c-110 -31 -182 -98 -243 -227 -66 -141 -86 -361 -42
-465 49 -115 177 -164 310 -119 71 25 159 111 201 198 92 191 101 448 18 546
-52 62 -156 91 -244 67z m96 -157 c27 -30 35 -95 23 -190 -26 -213 -109 -357
-192 -336 -40 10 -56 53 -56 149 0 138 50 300 112 365 38 38 85 43 113 12z"/>
<path d="M10410 22677 c53 -113 49 -274 -10 -374 -19 -33 -19 -33 0 -33 27 0
67 82 82 169 9 53 9 84 0 132 -15 83 -57 169 -82 169 -17 0 -17 -5 10 -63z"/>
<path d="M10642 22689 c-82 -41 -121 -156 -88 -257 37 -111 161 -154 261 -92
69 43 102 155 71 247 -19 57 -45 85 -98 108 -51 21 -95 19 -146 -6z m158 -57
c64 -64 66 -174 5 -241 -30 -32 -39 -36 -85 -36 -46 0 -55 4 -85 36 -55 61
-59 169 -7 230 52 62 117 66 172 11z"/>
<path d="M10970 22510 l0 -200 25 0 25 0 0 168 0 167 33 -60 c18 -33 63 -108
101 -167 56 -89 72 -108 92 -108 l24 0 0 200 0 200 -26 0 -27 0 6 -166 5 -166
-30 53 c-17 30 -62 105 -101 167 -63 100 -74 112 -99 112 l-28 0 0 -200z"/>
<path d="M11350 22510 l0 -200 110 0 c103 0 110 1 110 20 0 18 -7 20 -85 20
l-85 0 0 180 0 180 -25 0 -25 0 0 -200z"/>
<path d="M11609 22596 l61 -113 0 -87 c0 -85 0 -86 25 -86 25 0 25 1 25 85 l0
86 65 112 c60 104 63 112 43 115 -27 5 -38 -10 -86 -110 -20 -42 -39 -77 -42
-77 -3 -1 -27 42 -53 94 -41 83 -50 95 -73 95 -25 0 -25 -1 35 -114z"/>
<path d="M12020 22510 l0 -200 25 0 c25 0 25 1 25 90 l0 90 75 0 c68 0 75 2
75 20 0 18 -7 20 -75 20 l-75 0 0 70 0 70 80 0 c73 0 80 2 80 20 0 19 -7 20
-105 20 l-105 0 0 -200z"/>
<path d="M12382 22689 c-82 -41 -121 -156 -88 -257 37 -111 161 -154 261 -92
69 43 102 155 71 247 -19 57 -45 85 -98 108 -51 21 -95 19 -146 -6z m158 -57
c64 -64 66 -174 5 -241 -30 -32 -39 -36 -85 -36 -46 0 -55 4 -85 36 -55 61
-59 169 -7 230 52 62 117 66 172 11z"/>
<path d="M12718 22703 c-16 -4 -18 -22 -18 -199 l0 -194 25 0 c25 0 25 1 25
85 l0 85 43 0 c50 0 81 -26 92 -75 18 -80 26 -95 51 -95 22 0 24 3 18 23 -4
12 -13 44 -20 71 -7 27 -23 59 -34 71 l-22 23 31 29 c63 56 43 150 -36 172
-38 11 -122 13 -155 4z m157 -58 c14 -13 25 -36 25 -50 0 -14 -11 -37 -25 -50
-19 -20 -34 -25 -75 -25 l-50 0 0 75 0 75 50 0 c41 0 56 -5 75 -25z"/>
<path d="M13965 22694 c-108 -40 -155 -172 -100 -287 21 -45 57 -72 118 -88
59 -16 140 -3 145 24 3 17 -1 18 -51 12 -71 -9 -120 7 -152 49 -53 70 -39 191
28 238 26 19 45 23 105 23 61 -1 72 2 72 16 0 30 -96 38 -165 13z"/>
<path d="M14272 22689 c-82 -41 -121 -156 -88 -257 37 -111 161 -154 261 -92
69 43 102 155 71 247 -19 57 -45 85 -98 108 -51 21 -95 19 -146 -6z m158 -57
c64 -64 66 -174 5 -241 -30 -32 -39 -36 -85 -36 -46 0 -55 4 -85 36 -55 61
-59 169 -7 230 52 62 117 66 172 11z"/>
<path d="M14592 22556 c3 -137 5 -158 24 -183 65 -88 197 -79 246 18 15 28 18
61 18 177 l0 142 -25 0 -25 0 0 -140 c0 -179 -18 -220 -95 -220 -76 0 -95 45
-95 225 l0 135 -26 0 -26 0 4 -154z"/>
<path d="M14988 22703 c-16 -4 -18 -22 -18 -199 l0 -194 25 0 c25 0 25 1 25
79 l0 78 55 6 c108 11 161 73 136 158 -10 33 -20 44 -54 60 -40 17 -125 24
-169 12z m157 -58 c59 -58 11 -135 -84 -135 l-41 0 0 80 0 80 50 0 c41 0 56
-5 75 -25z"/>
<path d="M15280 22510 l0 -200 110 0 c103 0 110 1 110 20 0 18 -7 20 -85 20
l-85 0 0 180 0 180 -25 0 -25 0 0 -200z"/>
<path d="M15550 22510 l0 -200 110 0 c103 0 110 1 110 20 0 18 -7 20 -85 20
l-85 0 0 75 0 75 75 0 c68 0 75 2 75 20 0 18 -7 20 -75 20 l-75 0 0 65 0 65
80 0 c73 0 80 2 80 20 0 19 -7 20 -105 20 l-105 0 0 -200z"/>
<path d="M16013 22695 c-31 -13 -63 -59 -63 -90 0 -38 31 -74 87 -100 75 -35
93 -52 93 -86 0 -63 -57 -82 -157 -53 -19 5 -23 2 -23 -14 0 -16 10 -24 38
-31 51 -15 75 -14 122 5 44 18 70 55 70 101 0 43 -25 71 -93 104 -90 43 -109
78 -64 119 18 18 32 21 77 18 44 -2 55 0 58 13 5 29 -89 38 -145 14z"/>
<path d="M13180 22684 c-42 -18 -42 -18 -34 -37 5 -15 9 -15 34 -2 42 22 78
18 105 -10 49 -48 24 -113 -84 -220 -102 -100 -99 -105 49 -105 113 0 120 1
120 20 0 18 -7 20 -86 20 l-86 0 62 67 c63 67 99 129 100 171 0 38 -29 83 -65
98 -43 18 -71 17 -115 -2z"/>
<path d="M13498 22685 c-84 -47 -102 -255 -30 -336 55 -62 154 -42 190 39 10
24 16 66 16 122 0 89 -12 127 -52 163 -28 25 -90 31 -124 12z m106 -58 c18
-24 21 -43 21 -122 0 -79 -3 -98 -21 -122 -25 -33 -68 -42 -94 -18 -49 45 -52
199 -5 272 22 33 70 28 99 -10z"/>
<path d="M4085 18961 l-50 -6 -3 -417 -2 -418 55 0 55 0 0 168 0 169 55 -5
c66 -5 165 12 217 39 176 90 184 356 13 442 -68 34 -200 45 -340 28z m282
-107 c73 -54 93 -137 52 -220 -32 -66 -74 -87 -186 -92 l-93 -4 0 172 0 172
99 -4 c82 -2 105 -7 128 -24z"/>
<path d="M6008 18957 c-94 -27 -161 -98 -174 -184 -15 -104 43 -184 176 -245
132 -61 153 -74 178 -109 44 -63 20 -158 -50 -196 -49 -27 -177 -24 -242 5
-27 12 -50 22 -52 22 -2 0 -9 -19 -16 -41 -15 -53 -4 -62 100 -85 161 -36 309
12 362 117 44 85 35 184 -22 253 -22 27 -64 53 -153 96 -138 66 -175 100 -175
158 0 110 124 163 266 114 l52 -18 11 37 c15 50 16 48 -25 65 -50 21 -179 27
-236 11z"/>
<path d="M9115 18960 c-83 -17 -155 -52 -209 -101 -104 -95 -141 -193 -134
-354 4 -87 9 -111 35 -167 60 -129 155 -197 306 -220 86 -13 225 -1 302 25
l40 14 3 201 2 202 -140 0 -140 0 0 -45 0 -45 85 0 85 0 0 -125 0 -124 -42
-12 c-24 -6 -80 -9 -125 -7 -201 11 -315 151 -300 368 7 100 39 173 103 229
81 71 217 98 348 67 38 -9 70 -15 71 -14 11 15 23 74 17 80 -28 28 -220 45
-307 28z"/>
<path d="M10455 18964 c-16 -3 -40 -7 -52 -9 l-23 -5 0 -414 0 -414 67 -8
c156 -16 324 14 392 72 64 53 91 177 58 257 -17 39 -87 104 -122 113 -24 6
-36 24 -15 24 20 0 84 66 101 105 22 47 23 83 7 137 -14 48 -82 112 -134 128
-41 12 -227 21 -279 14z m246 -100 c38 -19 69 -70 69 -111 0 -100 -76 -153
-219 -153 l-61 0 0 139 c0 137 0 140 23 145 39 8 158 -4 188 -20z m18 -374
c59 -33 83 -79 78 -148 -4 -58 -37 -104 -92 -127 -41 -18 -137 -29 -180 -21
l-35 7 0 161 0 160 93 -4 c74 -3 100 -8 136 -28z"/>
<path d="M15525 18964 c-16 -3 -40 -7 -52 -9 l-23 -5 0 -414 0 -414 67 -8
c156 -16 324 14 392 72 64 53 91 177 58 257 -17 39 -87 104 -122 113 -24 6
-36 24 -15 24 20 0 84 66 101 105 22 47 23 83 7 137 -14 48 -82 112 -134 128
-41 12 -227 21 -279 14z m245 -99 c39 -20 70 -70 70 -112 0 -100 -76 -153
-219 -153 l-61 0 0 139 c0 137 0 140 23 145 41 9 155 -3 187 -19z m19 -375
c59 -33 83 -79 78 -148 -4 -58 -37 -104 -92 -127 -41 -18 -137 -29 -180 -21
l-35 7 0 161 0 160 93 -4 c74 -3 100 -8 136 -28z"/>
<path d="M17330 18964 c-19 -3 -45 -7 -57 -9 l-23 -5 0 -415 0 -415 55 0 55 0
0 185 0 185 65 0 c78 0 138 -22 165 -61 12 -15 36 -86 54 -158 19 -71 37 -134
41 -140 3 -6 31 -11 61 -11 49 0 54 2 46 18 -6 9 -24 73 -41 142 -36 141 -62
195 -108 226 l-33 22 29 12 c36 14 87 64 109 104 10 20 16 55 17 96 0 105 -55
181 -154 211 -38 11 -222 20 -281 13z m247 -100 c115 -57 111 -212 -7 -271
-35 -18 -61 -23 -127 -23 l-83 0 0 154 0 155 28 4 c52 10 151 -1 189 -19z"/>
<path d="M18270 18964 c-19 -2 -50 -7 -67 -10 l-33 -5 0 -413 0 -413 53 -7
c84 -10 206 -6 289 8 179 32 280 116 334 276 26 76 26 234 1 311 -37 111 -129
197 -252 235 -49 15 -254 26 -325 18z m322 -117 c110 -54 162 -147 162 -292
-1 -159 -55 -260 -171 -317 -63 -31 -76 -33 -185 -37 l-118 -3 0 334 c0 184 3
338 8 342 4 4 61 6 127 4 107 -3 126 -6 177 -31z"/>
<path d="M5065 18948 c-3 -7 -20 -58 -39 -113 -19 -55 -81 -239 -140 -408
l-105 -308 56 3 56 3 45 133 44 132 148 0 148 0 44 -132 45 -133 56 -3 c31 -2
57 0 57 3 0 3 -64 193 -142 421 l-141 414 -64 0 c-42 0 -65 -4 -68 -12z m75
-116 c0 -10 27 -95 59 -190 l59 -172 -128 0 -128 0 59 178 c32 97 59 185 59
195 0 10 5 15 10 12 6 -3 10 -14 10 -23z"/>
<path d="M6945 18948 c-3 -7 -20 -58 -39 -113 -19 -55 -81 -239 -140 -408
l-105 -308 56 3 56 3 45 133 44 132 148 0 148 0 44 -132 45 -133 56 -3 c31 -2
57 0 57 3 0 3 -64 192 -141 420 l-142 415 -64 0 c-42 0 -65 -4 -68 -12z m75
-116 c0 -10 27 -95 59 -190 l59 -172 -128 0 -128 0 59 178 c32 97 59 185 59
195 0 10 5 15 10 12 6 -3 10 -14 10 -23z"/>
<path d="M7740 18540 l0 -420 51 0 51 0 -4 350 c-1 193 -2 350 -1 350 1 0 21
-36 44 -81 23 -44 117 -200 209 -347 l168 -267 56 -3 56 -3 0 421 0 420 -51 0
-51 0 4 -344 c1 -189 0 -342 -4 -339 -5 2 -8 8 -8 14 0 18 -104 196 -252 430
l-152 239 -58 0 -58 0 0 -420z"/>
<path d="M11310 18540 l0 -420 235 0 235 0 0 45 0 45 -180 0 -180 0 0 155 0
155 160 0 160 0 0 45 0 45 -160 0 -160 0 0 130 0 130 170 0 170 0 0 45 0 45
-225 0 -225 0 0 -420z"/>
<path d="M12170 18540 l0 -420 55 0 55 0 0 200 0 200 205 0 205 0 0 -200 0
-200 55 0 55 0 0 420 0 420 -55 0 -55 0 0 -175 0 -175 -205 0 -205 0 0 175 0
175 -55 0 -55 0 0 -420z"/>
<path d="M13240 18540 l0 -420 235 0 235 0 0 45 0 45 -180 0 -180 0 0 155 0
155 160 0 160 0 0 45 0 45 -160 0 -160 0 0 130 0 130 170 0 170 0 0 45 0 45
-225 0 -225 0 0 -420z"/>
<path d="M14100 18540 l0 -420 235 0 235 0 0 45 0 45 -180 0 -180 0 0 375 0
375 -55 0 -55 0 0 -420z"/>
<path d="M16380 18540 l0 -420 235 0 235 0 0 45 0 45 -180 0 -180 0 0 155 0
155 160 0 160 0 0 45 0 45 -160 0 -160 0 0 130 0 130 170 0 170 0 0 45 0 45
-225 0 -225 0 0 -420z"/>
<path d="M19250 18688 c0 -350 13 -420 92 -499 56 -55 110 -73 218 -74 84 0
102 3 152 28 67 33 110 81 140 157 21 52 23 74 26 358 l4 302 -56 0 -55 0 -3
-302 c-3 -295 -4 -304 -27 -351 -32 -65 -85 -100 -160 -105 -109 -8 -186 50
-210 158 -6 25 -11 170 -11 323 l0 277 -55 0 -55 0 0 -272z"/>
<path d="M20495 18948 c-3 -7 -20 -58 -39 -113 -19 -55 -81 -239 -140 -408
l-105 -308 56 3 56 3 45 133 44 132 148 0 148 0 44 -132 45 -133 56 -3 c31 -2
57 0 57 3 0 3 -64 192 -141 420 l-142 415 -64 0 c-42 0 -65 -4 -68 -12z m75
-116 c0 -10 27 -95 59 -190 l59 -172 -128 0 -128 0 59 178 c32 97 59 185 59
195 0 10 5 15 10 12 6 -3 10 -14 10 -23z"/>
<path d="M9847 17479 c-106 -25 -177 -109 -177 -209 0 -89 54 -155 170 -207
155 -70 193 -101 210 -173 41 -169 -149 -276 -335 -189 -51 24 -53 23 -57 -12
-3 -21 4 -26 62 -47 135 -47 292 -13 354 77 68 98 48 242 -43 309 -17 13 -75
43 -129 68 -53 25 -107 55 -120 67 -80 75 -67 196 28 251 44 26 157 27 212 3
37 -15 38 -15 49 5 16 29 -5 43 -85 57 -71 12 -86 12 -139 0z"/>
<path d="M11565 17473 c-22 -3 -44 -8 -49 -13 -5 -5 -44 -191 -86 -412 -76
-398 -76 -403 -56 -412 12 -4 95 -8 186 -9 240 -1 352 34 460 142 134 135 179
368 101 525 -64 131 -188 187 -406 184 -60 -1 -128 -3 -150 -5z m301 -163 c24
-12 52 -36 64 -55 64 -103 31 -301 -66 -398 -56 -56 -115 -79 -218 -85 l-89
-5 6 24 c3 13 27 137 52 274 33 176 52 254 64 263 23 19 132 8 187 -18z"/>
<path d="M12413 17471 c-24 -4 -45 -10 -48 -12 -3 -3 -40 -191 -83 -417 l-78
-412 88 0 c83 0 88 1 93 23 8 34 55 289 55 298 0 13 97 11 122 -2 31 -17 46
-66 59 -190 6 -63 13 -117 16 -121 2 -5 45 -8 94 -8 l90 0 -6 33 c-3 17 -12
87 -20 153 -14 125 -29 172 -65 197 -20 14 -20 15 10 27 64 26 111 70 137 127
61 134 -2 259 -152 298 -61 16 -231 19 -312 6z m242 -145 c41 -17 55 -42 55
-95 0 -28 -8 -48 -27 -72 -36 -42 -79 -59 -153 -59 -54 0 -61 2 -56 18 2 9 12
58 21 107 9 50 18 96 20 103 6 17 97 16 140 -2z"/>
<path d="M8658 17133 c-3 -315 -4 -341 -23 -377 -11 -22 -32 -49 -47 -59 -32
-24 -115 -34 -156 -19 -27 9 -31 8 -36 -11 -8 -32 7 -41 79 -45 110 -7 181 33
222 123 16 36 18 78 21 383 l3 342 -30 0 -30 0 -3 -337z"/>
<path d="M8910 17208 c0 -145 5 -292 11 -328 26 -165 107 -247 250 -258 148
-10 257 60 298 193 19 61 21 92 21 361 l0 294 -30 0 -30 0 0 -293 c0 -342 -5
-375 -74 -443 -101 -102 -279 -78 -343 46 -36 69 -43 142 -43 428 l0 262 -30
0 -30 0 0 -262z"/>
<path d="M10160 17445 l0 -25 140 0 140 0 0 -395 0 -395 30 0 30 0 0 395 0
395 135 0 135 0 0 25 0 25 -305 0 -305 0 0 -25z"/>
<path d="M11087 17063 c-42 -225 -77 -414 -77 -420 0 -10 24 -13 88 -13 l87 0
78 413 c43 226 77 415 77 420 0 4 -40 7 -88 7 l-88 0 -77 -407z"/>
<path d="M15947 17058 c-43 -227 -78 -417 -77 -421 0 -4 39 -6 87 -5 l87 3 26
138 c25 132 28 139 65 177 22 22 43 39 48 37 5 -1 39 -81 76 -177 l68 -175 98
-3 c90 -3 97 -1 91 15 -4 10 -48 118 -98 241 l-90 222 143 153 c78 83 154 164
168 180 l25 27 -112 0 -111 0 -151 -181 c-84 -101 -150 -172 -150 -162 0 10
14 88 30 173 16 85 30 158 30 163 0 4 -40 7 -88 7 l-88 0 -77 -412z"/>
<path d="M14153 17450 c-178 -37 -298 -223 -253 -390 16 -60 80 -124 140 -140
57 -15 132 -7 177 20 20 11 37 19 40 16 2 -2 -15 -28 -39 -57 -64 -78 -149
-121 -249 -127 l-77 -4 -7 -57 c-3 -31 -8 -64 -11 -73 -5 -16 2 -18 58 -18
159 1 293 56 392 161 103 108 156 242 156 391 0 132 -51 224 -144 263 -43 18
-133 25 -183 15z m96 -145 c38 -19 54 -63 49 -132 -4 -49 -9 -60 -41 -90 -30
-27 -45 -33 -80 -33 -54 0 -83 21 -98 68 -14 48 1 109 38 152 42 50 83 61 132
35z"/>
<path d="M14834 17450 c-67 -14 -138 -55 -187 -110 -59 -66 -80 -128 -75 -224
4 -89 35 -144 101 -178 58 -30 155 -31 215 -2 23 12 42 19 42 17 0 -2 -13 -24
-30 -47 -54 -79 -170 -136 -276 -136 l-52 0 -7 -42 c-3 -24 -9 -58 -12 -75
l-5 -33 64 0 c209 0 394 112 483 292 80 165 85 337 11 448 -45 69 -172 110
-272 90z m107 -158 c23 -21 32 -38 36 -72 10 -98 -45 -170 -133 -170 -35 0
-47 5 -68 31 -65 77 7 238 106 239 16 0 41 -12 59 -28z"/>
<path d="M15530 17453 c-115 -20 -202 -81 -248 -173 -38 -76 -48 -137 -33
-205 31 -140 185 -204 322 -135 l40 21 -11 -22 c-25 -45 -91 -106 -145 -134
-42 -21 -76 -29 -131 -33 -41 -3 -76 -7 -78 -11 -2 -3 -7 -36 -11 -73 l-7 -68
58 0 c209 1 386 104 477 278 118 225 85 471 -73 535 -40 17 -123 27 -160 20z
m91 -162 c26 -26 29 -36 29 -91 0 -102 -42 -150 -130 -150 -59 0 -90 35 -90
104 0 62 25 113 70 144 46 31 85 29 121 -7z"/>
<path d="M13367 17433 c-3 -5 -28 -93 -57 -198 -29 -104 -54 -194 -56 -200 -3
-6 34 -10 98 -10 146 -1 198 -33 198 -122 0 -85 -98 -142 -220 -130 -33 4 -75
13 -95 21 l-34 15 -23 -70 c-15 -48 -19 -72 -11 -80 19 -19 117 -39 193 -39
218 0 363 114 378 297 4 54 1 70 -23 118 -17 36 -40 65 -63 80 -42 27 -155 59
-183 52 -23 -6 -23 3 0 68 l18 50 143 5 144 5 13 60 c7 33 12 66 13 73 0 9
-49 12 -214 12 -118 0 -217 -3 -219 -7z"/>
<path d="M10740 16357 c53 -113 49 -274 -10 -374 -19 -33 -19 -33 0 -33 27 0
67 82 82 169 9 53 9 84 0 132 -15 83 -57 169 -82 169 -17 0 -17 -5 10 -63z"/>
<path d="M10972 16369 c-82 -41 -121 -156 -88 -257 37 -111 161 -154 261 -92
69 43 102 155 71 247 -19 57 -45 85 -98 108 -51 21 -95 19 -146 -6z m158 -57
c64 -64 66 -174 5 -241 -30 -32 -39 -36 -85 -36 -46 0 -55 4 -85 36 -55 61
-59 169 -7 230 52 62 117 66 172 11z"/>
<path d="M11300 16190 l0 -200 25 0 25 0 0 168 0 167 33 -60 c18 -33 63 -108
101 -167 56 -89 72 -108 92 -108 l24 0 0 200 0 200 -26 0 -27 0 6 -166 5 -166
-30 53 c-17 30 -62 105 -101 167 -63 100 -74 112 -99 112 l-28 0 0 -200z"/>
<path d="M11680 16190 l0 -200 110 0 c103 0 110 1 110 20 0 18 -7 20 -85 20
l-85 0 0 180 0 180 -25 0 -25 0 0 -200z"/>
<path d="M11939 16276 l61 -113 0 -87 c0 -85 0 -86 25 -86 25 0 25 1 25 85 l0
86 65 112 c60 104 63 112 43 115 -27 5 -38 -10 -86 -110 -20 -42 -39 -77 -42
-77 -3 -1 -27 42 -53 94 -41 83 -50 95 -73 95 -25 0 -25 -1 35 -114z"/>
<path d="M12350 16190 l0 -200 25 0 c25 0 25 1 25 90 l0 90 75 0 c68 0 75 2
75 20 0 18 -7 20 -75 20 l-75 0 0 70 0 70 80 0 c73 0 80 2 80 20 0 19 -7 20
-105 20 l-105 0 0 -200z"/>
<path d="M12712 16369 c-82 -41 -121 -156 -88 -257 37 -111 161 -154 261 -92
69 43 102 155 71 247 -19 57 -45 85 -98 108 -51 21 -95 19 -146 -6z m158 -57
c64 -64 66 -174 5 -241 -30 -32 -39 -36 -85 -36 -46 0 -55 4 -85 36 -55 61
-59 169 -7 230 52 62 117 66 172 11z"/>
<path d="M13048 16383 c-16 -4 -18 -22 -18 -199 l0 -194 25 0 c25 0 25 1 25
85 l0 85 43 0 c50 0 81 -26 92 -75 18 -80 26 -95 51 -95 22 0 24 3 18 23 -4
12 -13 44 -20 71 -7 27 -23 59 -34 71 l-22 23 31 29 c63 56 43 150 -36 172
-38 11 -122 13 -155 4z m157 -58 c14 -13 25 -36 25 -50 0 -14 -11 -37 -25 -50
-19 -20 -34 -25 -75 -25 l-50 0 0 75 0 75 50 0 c41 0 56 -5 75 -25z"/>
<path d="M14295 16374 c-108 -40 -155 -172 -100 -287 21 -45 57 -72 118 -88
59 -16 140 -3 145 24 3 17 -1 18 -51 12 -71 -9 -120 7 -152 49 -53 70 -39 191
28 238 26 19 45 23 105 23 61 -1 72 2 72 16 0 30 -96 38 -165 13z"/>
<path d="M14602 16369 c-82 -41 -121 -156 -88 -257 37 -111 161 -154 261 -92
69 43 102 155 71 247 -19 57 -45 85 -98 108 -51 21 -95 19 -146 -6z m158 -57
c64 -64 66 -174 5 -241 -30 -32 -39 -36 -85 -36 -46 0 -55 4 -85 36 -55 61
-59 169 -7 230 52 62 117 66 172 11z"/>
<path d="M14922 16236 c3 -137 5 -158 24 -183 65 -88 197 -79 246 18 15 28 18
61 18 177 l0 142 -25 0 -25 0 0 -140 c0 -179 -18 -220 -95 -220 -76 0 -95 45
-95 225 l0 135 -26 0 -26 0 4 -154z"/>
<path d="M15318 16383 c-16 -4 -18 -22 -18 -199 l0 -194 25 0 c25 0 25 1 25
79 l0 78 55 6 c108 11 161 73 136 158 -10 33 -20 44 -54 60 -40 17 -125 24
-169 12z m157 -58 c59 -58 11 -135 -84 -135 l-41 0 0 80 0 80 50 0 c41 0 56
-5 75 -25z"/>
<path d="M15610 16190 l0 -200 110 0 c103 0 110 1 110 20 0 18 -7 20 -85 20
l-85 0 0 180 0 180 -25 0 -25 0 0 -200z"/>
<path d="M15880 16190 l0 -200 110 0 c103 0 110 1 110 20 0 18 -7 20 -85 20
l-85 0 0 75 0 75 75 0 c68 0 75 2 75 20 0 18 -7 20 -75 20 l-75 0 0 65 0 65
80 0 c73 0 80 2 80 20 0 19 -7 20 -105 20 l-105 0 0 -200z"/>
<path d="M16343 16375 c-31 -13 -63 -59 -63 -90 0 -38 31 -74 87 -100 75 -35
93 -52 93 -86 0 -63 -57 -82 -157 -53 -19 5 -23 2 -23 -14 0 -16 10 -24 38
-31 51 -15 75 -14 122 5 44 18 70 55 70 101 0 43 -25 71 -93 104 -90 43 -109
78 -64 119 18 18 32 21 77 18 44 -2 55 0 58 13 5 29 -89 38 -145 14z"/>
<path d="M13538 16359 c-25 -12 -38 -27 -38 -39 0 -24 8 -25 34 -5 11 8 23 15
28 15 4 0 8 -76 8 -170 l0 -170 25 0 25 0 0 195 0 195 -22 0 c-13 -1 -40 -10
-60 -21z"/>
<path d="M13828 16365 c-84 -47 -102 -255 -30 -336 55 -62 154 -42 190 39 10
24 16 66 16 122 0 89 -12 127 -52 163 -28 25 -90 31 -124 12z m106 -58 c18
-24 21 -43 21 -122 0 -79 -3 -98 -21 -122 -25 -33 -68 -42 -94 -18 -49 45 -52
199 -5 272 22 33 70 28 99 -10z"/>
<path d="M5515 11524 c-16 -3 -40 -7 -52 -9 l-23 -5 0 -414 0 -413 46 -7 c131
-18 298 3 377 46 83 46 123 145 103 253 -9 46 -75 120 -122 137 -32 11 -46 28
-24 28 20 0 84 66 101 105 22 47 23 83 7 137 -14 48 -82 112 -134 128 -41 12
-227 21 -279 14z m245 -99 c62 -32 88 -116 55 -179 -31 -58 -89 -84 -192 -85
l-73 -1 0 139 c0 137 0 140 23 145 41 9 155 -3 187 -19z m19 -375 c59 -33 83
-79 78 -148 -4 -58 -37 -104 -92 -127 -41 -18 -137 -29 -180 -21 l-35 7 0 161
0 160 93 -4 c74 -3 100 -8 136 -28z"/>
<path d="M9363 11519 c-153 -30 -270 -135 -314 -282 -28 -91 -23 -244 10 -329
65 -167 257 -262 469 -231 42 6 90 16 105 22 26 10 28 14 22 44 -10 46 -18 51
-62 36 -58 -20 -198 -17 -262 5 -128 44 -199 173 -189 340 7 101 34 168 91
224 82 80 211 110 335 78 35 -9 65 -16 67 -16 3 0 9 19 15 41 14 50 11 53 -75
68 -70 13 -151 13 -212 0z"/>
<path d="M13035 11520 c-83 -17 -155 -52 -209 -101 -104 -95 -141 -193 -134
-354 4 -87 9 -111 35 -167 60 -129 155 -197 306 -220 86 -13 225 -1 302 25
l40 14 3 201 2 202 -140 0 -140 0 0 -45 0 -45 85 0 85 0 0 -125 0 -124 -42
-12 c-24 -6 -80 -9 -125 -7 -201 11 -315 151 -300 368 7 100 39 173 103 229
81 71 217 98 348 67 38 -9 70 -15 71 -14 11 15 23 74 17 80 -28 28 -220 45
-307 28z"/>
<path d="M14603 11519 c-153 -30 -270 -135 -314 -282 -28 -91 -23 -244 10
-329 65 -167 257 -262 469 -231 42 6 90 16 105 22 26 10 28 14 22 44 -10 46
-18 51 -62 36 -58 -20 -198 -17 -262 5 -128 44 -199 173 -189 340 7 101 34
168 91 224 82 80 211 110 335 78 35 -9 65 -16 67 -16 3 0 9 19 15 41 14 50 11
53 -75 68 -70 13 -151 13 -212 0z"/>
<path d="M15502 11515 c-75 -21 -109 -41 -163 -95 -83 -83 -119 -184 -119
-331 0 -210 103 -360 280 -405 120 -30 257 0 344 77 91 80 136 194 136 344 0
198 -83 340 -233 397 -69 26 -177 32 -245 13z m203 -99 c104 -48 165 -165 165
-317 0 -141 -62 -262 -159 -311 -128 -65 -272 -14 -340 121 -66 131 -47 338
41 445 68 82 193 109 293 62z"/>
<path d="M17505 11523 c-16 -2 -40 -6 -52 -8 l-23 -5 0 -415 0 -415 55 0 55 0
0 168 0 167 93 1 c114 1 187 26 246 86 113 113 84 322 -54 391 -64 31 -203 45
-320 30z m262 -109 c72 -53 92 -136 54 -220 -29 -65 -76 -87 -188 -92 l-93 -4
0 172 0 172 99 -4 c82 -2 105 -7 128 -24z"/>
<path d="M6370 11100 l0 -420 235 0 235 0 0 45 0 45 -180 0 -180 0 0 375 0
375 -55 0 -55 0 0 -420z"/>
<path d="M7210 11100 l0 -420 235 0 235 0 0 45 0 45 -180 0 -180 0 0 155 0
155 160 0 160 0 0 45 0 45 -160 0 -160 0 0 130 0 130 170 0 170 0 0 45 0 45
-225 0 -225 0 0 -420z"/>
<path d="M8305 11508 c-3 -7 -20 -58 -39 -113 -19 -55 -81 -239 -140 -408
l-105 -308 56 3 56 3 45 133 44 132 148 0 148 0 44 -132 45 -133 56 -3 c31 -2
57 0 57 3 0 3 -64 192 -141 420 l-142 415 -64 0 c-42 0 -65 -4 -68 -12z m75
-116 c0 -10 27 -95 59 -190 l59 -172 -128 0 -128 0 59 178 c32 97 59 185 59
195 0 10 5 15 10 12 6 -3 10 -14 10 -23z"/>
<path d="M10050 11100 l0 -420 55 0 55 0 0 200 0 200 205 0 205 0 0 -200 0
-200 55 0 55 0 0 420 0 420 -55 0 -55 0 0 -175 0 -175 -205 0 -205 0 0 175 0
175 -55 0 -55 0 0 -420z"/>
<path d="M11110 11100 l0 -420 55 0 55 0 0 420 0 420 -55 0 -55 0 0 -420z"/>
<path d="M11670 11100 l0 -420 51 0 51 0 -4 350 c-1 193 -2 350 -1 350 1 0 21
-36 44 -81 23 -44 117 -200 209 -347 l168 -267 56 -3 56 -3 0 421 0 420 -51 0
-51 0 4 -344 c1 -189 0 -342 -4 -339 -5 2 -8 8 -8 14 0 18 -104 196 -252 430
l-152 239 -58 0 -58 0 0 -420z"/>
<path d="M16370 11248 c0 -350 13 -420 92 -499 56 -55 110 -73 218 -74 84 0
102 3 152 28 68 33 110 81 140 157 21 51 22 75 26 358 l4 302 -55 0 -56 0 -3
-302 c-3 -295 -4 -304 -27 -351 -32 -65 -85 -100 -160 -105 -109 -8 -186 50
-210 158 -6 25 -11 170 -11 323 l0 277 -55 0 -55 0 0 -272z"/>
<path d="M18340 11100 l0 -420 235 0 235 0 0 45 0 45 -180 0 -180 0 0 375 0
375 -55 0 -55 0 0 -420z"/>
<path d="M19180 11100 l0 -420 235 0 235 0 0 45 0 45 -180 0 -180 0 0 155 0
155 160 0 160 0 0 45 0 45 -160 0 -160 0 0 130 0 130 170 0 170 0 0 45 0 45
-225 0 -225 0 0 -420z"/>
<path d="M9757 9959 c-106 -25 -177 -109 -177 -209 0 -89 54 -155 170 -207
155 -70 193 -101 210 -173 41 -169 -149 -276 -335 -189 -51 24 -53 23 -57 -12
-3 -21 4 -26 62 -47 135 -47 292 -13 354 77 68 98 48 242 -43 309 -17 13 -75
43 -129 68 -53 25 -107 55 -120 67 -80 75 -67 196 28 251 44 26 157 27 212 3
37 -15 38 -15 49 5 16 29 -5 43 -85 57 -71 12 -86 12 -139 0z"/>
<path d="M11475 9953 c-22 -3 -44 -8 -49 -13 -5 -5 -44 -191 -86 -412 -76
-398 -76 -403 -56 -412 12 -4 95 -8 186 -9 240 -1 352 34 460 142 134 135 179
368 101 525 -64 131 -188 187 -406 184 -60 -1 -128 -3 -150 -5z m301 -163 c24
-12 52 -36 64 -55 64 -103 31 -301 -66 -398 -56 -56 -115 -79 -218 -85 l-89
-5 6 24 c3 13 27 137 52 274 33 176 52 254 64 263 23 19 132 8 187 -18z"/>
<path d="M12323 9951 c-24 -4 -45 -10 -48 -12 -3 -3 -40 -191 -83 -417 l-78
-412 88 0 c83 0 88 1 93 23 8 34 55 289 55 298 0 13 97 11 122 -2 31 -17 46
-66 59 -190 6 -63 13 -117 16 -121 2 -5 45 -8 94 -8 l90 0 -6 33 c-3 17 -12
87 -20 153 -14 125 -29 172 -65 197 -20 14 -20 15 10 27 64 26 111 70 137 127
61 134 -2 259 -152 298 -61 16 -231 19 -312 6z m242 -145 c41 -17 55 -42 55
-95 0 -28 -8 -48 -27 -72 -36 -42 -79 -59 -153 -59 -54 0 -61 2 -56 18 2 9 12
58 21 107 9 50 18 96 20 103 6 17 97 16 140 -2z"/>
<path d="M8568 9613 c-3 -315 -4 -341 -23 -377 -11 -22 -32 -49 -47 -59 -32
-24 -115 -34 -156 -19 -27 9 -31 8 -36 -11 -8 -32 7 -41 79 -45 110 -7 181 33
222 123 16 36 18 78 21 383 l3 342 -30 0 -30 0 -3 -337z"/>
<path d="M8820 9688 c0 -145 5 -292 11 -328 26 -165 107 -247 250 -258 148
-10 257 60 298 193 19 61 21 92 21 361 l0 294 -30 0 -30 0 0 -293 c0 -342 -5
-375 -74 -443 -101 -102 -279 -78 -343 46 -36 69 -43 142 -43 428 l0 262 -30
0 -30 0 0 -262z"/>
<path d="M10070 9925 l0 -25 140 0 140 0 0 -395 0 -395 30 0 30 0 0 395 0 395
135 0 135 0 0 25 0 25 -305 0 -305 0 0 -25z"/>
<path d="M10997 9543 c-42 -225 -77 -414 -77 -420 0 -10 24 -13 88 -13 l87 0
78 413 c43 226 77 415 77 420 0 4 -40 7 -88 7 l-88 0 -77 -407z"/>
<path d="M15857 9538 c-43 -227 -78 -417 -77 -421 0 -4 39 -6 87 -5 l87 3 26
138 c25 132 28 139 65 177 22 22 43 39 48 37 5 -1 39 -81 76 -177 l68 -175 98
-3 c90 -3 97 -1 91 15 -4 10 -48 118 -98 241 l-90 222 143 153 c78 83 154 164
168 180 l25 27 -112 0 -111 0 -151 -181 c-84 -101 -150 -172 -150 -162 0 10
14 88 30 173 16 85 30 158 30 163 0 4 -40 7 -88 7 l-88 0 -77 -412z"/>
<path d="M13343 9925 c-70 -15 -153 -50 -153 -63 0 -9 31 -115 35 -120 1 -1
22 7 46 18 62 28 167 28 202 0 94 -74 0 -219 -284 -437 -58 -45 -110 -88 -116
-95 -6 -7 -15 -37 -20 -65 l-10 -53 278 0 278 0 7 38 c3 20 10 54 14 75 6 27
5 40 -3 43 -7 2 -69 5 -140 6 l-127 3 86 65 c165 124 242 231 252 346 8 107
-28 178 -113 219 -64 31 -152 39 -232 20z"/>
<path d="M14773 9930 c-100 -20 -192 -100 -248 -215 -53 -107 -69 -183 -70
-315 0 -99 4 -122 24 -168 41 -90 107 -132 213 -132 160 0 292 139 349 369 28
113 24 285 -8 347 -32 60 -83 100 -143 113 -57 12 -58 12 -117 1z m81 -155
c41 -42 43 -142 6 -302 -24 -100 -58 -171 -100 -207 -40 -33 -70 -33 -101 0
-65 70 -12 387 82 486 39 42 85 51 113 23z"/>
<path d="M15432 9925 c-136 -38 -233 -158 -282 -351 -25 -95 -27 -238 -4 -313
32 -108 121 -168 237 -159 156 13 276 141 334 358 22 83 24 279 4 330 -48 118
-159 170 -289 135z m104 -156 c41 -45 26 -253 -28 -396 -28 -71 -84 -133 -122
-133 -66 0 -95 84 -76 221 19 138 65 257 117 305 33 31 83 32 109 3z"/>
<path d="M13950 9915 c0 -3 -25 -95 -55 -204 -30 -109 -55 -200 -55 -202 0 -2
44 -4 98 -4 73 -1 106 -6 135 -20 77 -37 87 -126 22 -184 -61 -53 -157 -65
-255 -31 -30 10 -55 18 -55 17 -1 -1 -9 -29 -19 -62 -10 -33 -21 -65 -23 -71
-2 -7 17 -20 44 -30 73 -29 258 -26 334 4 146 58 228 199 198 340 -20 97 -114
169 -228 175 -28 1 -51 6 -51 11 0 5 8 33 17 63 l17 53 142 0 143 0 11 58 c6
31 14 65 16 75 5 16 -10 17 -215 17 -122 0 -221 -2 -221 -5z"/>
<path d="M10720 8877 c53 -113 49 -274 -10 -374 -19 -33 -19 -33 0 -33 27 0
67 82 82 169 9 53 9 84 0 132 -15 83 -57 169 -82 169 -17 0 -17 -5 10 -63z"/>
<path d="M10952 8889 c-82 -41 -121 -156 -88 -257 37 -111 161 -154 261 -92
69 43 102 155 71 247 -19 57 -45 85 -98 108 -51 21 -95 19 -146 -6z m158 -57
c64 -64 66 -174 5 -241 -30 -32 -39 -36 -85 -36 -46 0 -55 4 -85 36 -55 61
-59 169 -7 230 52 62 117 66 172 11z"/>
<path d="M11280 8710 l0 -200 25 0 25 0 0 168 0 167 33 -60 c18 -33 63 -108
101 -167 56 -89 72 -108 92 -108 l24 0 0 200 0 200 -26 0 -27 0 6 -166 5 -166
-30 53 c-17 30 -62 105 -101 167 -63 100 -74 112 -99 112 l-28 0 0 -200z"/>
<path d="M11660 8710 l0 -200 110 0 c103 0 110 1 110 20 0 18 -7 20 -85 20
l-85 0 0 180 0 180 -25 0 -25 0 0 -200z"/>
<path d="M11919 8796 l61 -113 0 -87 c0 -85 0 -86 25 -86 25 0 25 1 25 85 l0
86 65 112 c60 104 63 112 43 115 -27 5 -38 -10 -86 -110 -20 -42 -39 -77 -42
-77 -3 -1 -27 42 -53 94 -41 83 -50 95 -73 95 -25 0 -25 -1 35 -114z"/>
<path d="M12330 8710 l0 -200 25 0 c25 0 25 1 25 90 l0 90 75 0 c68 0 75 2 75
20 0 18 -7 20 -75 20 l-75 0 0 70 0 70 80 0 c73 0 80 2 80 20 0 19 -7 20 -105
20 l-105 0 0 -200z"/>
<path d="M12692 8889 c-82 -41 -121 -156 -88 -257 37 -111 161 -154 261 -92
69 43 102 155 71 247 -19 57 -45 85 -98 108 -51 21 -95 19 -146 -6z m158 -57
c64 -64 66 -174 5 -241 -30 -32 -39 -36 -85 -36 -46 0 -55 4 -85 36 -55 61
-59 169 -7 230 52 62 117 66 172 11z"/>
<path d="M13028 8903 c-16 -4 -18 -22 -18 -199 l0 -194 25 0 c25 0 25 1 25 85
l0 85 43 0 c50 0 81 -26 92 -75 18 -80 26 -95 51 -95 22 0 24 3 18 23 -4 12
-13 44 -20 71 -7 27 -23 59 -34 71 l-22 23 31 29 c63 56 43 150 -36 172 -38
11 -122 13 -155 4z m157 -58 c14 -13 25 -36 25 -50 0 -14 -11 -37 -25 -50 -19
-20 -34 -25 -75 -25 l-50 0 0 75 0 75 50 0 c41 0 56 -5 75 -25z"/>
<path d="M14275 8894 c-108 -40 -155 -172 -100 -287 21 -45 57 -72 118 -88 59
-16 140 -3 145 24 3 17 -1 18 -51 12 -71 -9 -120 7 -152 49 -53 70 -39 191 28
238 26 19 45 23 105 23 61 -1 72 2 72 16 0 30 -96 38 -165 13z"/>
<path d="M14582 8889 c-82 -41 -121 -156 -88 -257 37 -111 161 -154 261 -92
69 43 102 155 71 247 -19 57 -45 85 -98 108 -51 21 -95 19 -146 -6z m158 -57
c64 -64 66 -174 5 -241 -30 -32 -39 -36 -85 -36 -46 0 -55 4 -85 36 -55 61
-59 169 -7 230 52 62 117 66 172 11z"/>
<path d="M14902 8756 c3 -137 5 -158 24 -183 65 -88 197 -79 246 18 15 28 18
61 18 177 l0 142 -25 0 -25 0 0 -140 c0 -179 -18 -220 -95 -220 -76 0 -95 45
-95 225 l0 135 -26 0 -26 0 4 -154z"/>
<path d="M15298 8903 c-16 -4 -18 -22 -18 -199 l0 -194 25 0 c25 0 25 1 25 79
l0 78 55 6 c108 11 161 73 136 158 -10 33 -20 44 -54 60 -40 17 -125 24 -169
12z m157 -58 c59 -58 11 -135 -84 -135 l-41 0 0 80 0 80 50 0 c41 0 56 -5 75
-25z"/>
<path d="M15590 8710 l0 -200 110 0 c103 0 110 1 110 20 0 18 -7 20 -85 20
l-85 0 0 180 0 180 -25 0 -25 0 0 -200z"/>
<path d="M15860 8710 l0 -200 110 0 c103 0 110 1 110 20 0 18 -7 20 -85 20
l-85 0 0 75 0 75 75 0 c68 0 75 2 75 20 0 18 -7 20 -75 20 l-75 0 0 65 0 65
80 0 c73 0 80 2 80 20 0 19 -7 20 -105 20 l-105 0 0 -200z"/>
<path d="M16323 8895 c-31 -13 -63 -59 -63 -90 0 -38 31 -74 87 -100 75 -35
93 -52 93 -86 0 -63 -57 -82 -157 -53 -19 5 -23 2 -23 -14 0 -16 10 -24 38
-31 51 -15 75 -14 122 5 44 18 70 55 70 101 0 43 -25 71 -93 104 -90 43 -109
78 -64 119 18 18 32 21 77 18 44 -2 55 0 58 13 5 29 -89 38 -145 14z"/>
<path d="M13518 8879 c-25 -12 -38 -27 -38 -39 0 -24 8 -25 34 -5 11 8 23 15
28 15 4 0 8 -76 8 -170 l0 -170 25 0 25 0 0 195 0 195 -22 0 c-13 -1 -40 -10
-60 -21z"/>
<path d="M13808 8885 c-84 -47 -102 -255 -30 -336 55 -62 154 -42 190 39 10
24 16 66 16 122 0 89 -12 127 -52 163 -28 25 -90 31 -124 12z m106 -58 c18
-24 21 -43 21 -122 0 -79 -3 -98 -21 -122 -25 -33 -68 -42 -94 -18 -49 45 -52
199 -5 272 22 33 70 28 99 -10z"/>
<path d="M12825 6240 c-27 -4 -93 -24 -145 -45 -127 -49 -186 -54 -317 -22
-57 13 -103 20 -103 16 0 -5 -5 -8 -11 -6 -6 1 -14 -4 -17 -12 -3 -9 0 -11 9
-7 8 4 5 0 -5 -8 -13 -10 -15 -16 -7 -16 10 0 11 -3 2 -13 -6 -8 -8 -17 -4
-20 3 -4 -1 -7 -10 -7 -10 0 -17 5 -17 11 0 16 -131 5 -191 -16 -105 -36 -169
-130 -169 -244 0 -75 8 -113 21 -105 5 3 9 18 9 33 0 47 56 145 115 200 55 52
195 128 214 117 6 -4 6 -17 0 -34 -5 -15 -11 -44 -14 -64 -4 -22 -12 -38 -19
-38 -8 0 -16 -9 -19 -20 -3 -12 -1 -18 5 -14 16 10 -3 -39 -21 -54 -14 -11
-13 -12 9 -7 14 3 -8 -11 -48 -32 -87 -45 -182 -127 -218 -189 -30 -51 -54
-133 -54 -184 1 -33 3 -31 42 44 53 99 132 185 217 236 77 45 230 98 386 134
135 30 357 103 450 147 73 35 180 129 172 152 -6 21 -109 66 -162 70 -27 3
-72 2 -100 -3z"/>
<path d="M13115 6101 c-10 -34 -78 -105 -133 -140 -70 -44 -186 -87 -387 -142
-319 -88 -450 -139 -547 -213 -41 -32 -110 -111 -80 -92 18 11 14 -15 -5 -38
-17 -20 -17 -20 0 -7 10 8 17 9 17 3 0 -6 -4 -13 -9 -17 -6 -3 -8 -14 -6 -25
2 -11 -1 -20 -7 -20 -6 0 -8 -3 -5 -6 4 -4 19 1 34 11 20 13 15 4 -18 -31 -54
-56 -79 -101 -79 -140 0 -25 3 -23 39 27 95 132 192 176 666 304 176 47 286
90 383 147 74 43 212 178 212 207 0 11 -6 20 -12 19 -10 -2 -12 13 -10 58 3
53 1 65 -21 89 l-24 29 -8 -23z"/>
<path d="M13231 5893 c-52 -127 -212 -271 -391 -355 -82 -38 -241 -90 -345
-113 -183 -40 -310 -79 -396 -124 l-91 -46 -1 -173 c-2 -130 1 -171 10 -168 7
3 10 -1 6 -9 -3 -8 -9 -13 -14 -10 -15 10 0 -38 25 -75 13 -20 38 -52 55 -71
l32 -34 -67 -8 c-111 -12 -207 -36 -227 -55 -68 -69 112 -98 537 -89 338 8
595 36 667 72 31 16 38 45 16 63 -17 15 -90 30 -154 33 l-52 3 24 40 c34 61
70 167 100 301 37 167 59 228 121 341 138 251 174 343 174 443 0 53 -14 69
-29 34z m-617 -673 c50 -44 70 -112 63 -209 -5 -69 7 -176 29 -248 l6 -23
-168 -1 c-93 0 -207 -4 -254 -7 l-85 -7 8 65 c32 251 58 327 130 384 35 28 45
30 110 30 48 0 83 -6 104 -17 18 -9 35 -17 38 -17 10 0 -6 43 -23 63 -25 29 5
19 42 -13z"/>
<path d="M11785 4304 l0 -116 78 4 c74 3 81 5 108 36 23 25 29 42 29 76 0 79
-53 116 -165 116 l-50 0 0 -116z m120 92 c58 -25 81 -96 50 -156 -17 -32 -44
-43 -96 -38 l-34 3 -3 89 c-2 49 -1 95 2 103 7 17 38 17 81 -1z"/>
<path d="M12301 4313 c-7 -53 -15 -102 -18 -110 -3 -7 0 -13 5 -13 6 0 14 32
18 70 4 39 10 72 14 75 3 2 22 -27 40 -65 19 -39 37 -70 40 -70 3 0 21 32 40
70 19 39 37 70 41 70 4 0 10 -34 14 -75 6 -66 9 -75 26 -75 11 0 18 4 15 8 -2
4 -10 48 -16 98 -7 49 -15 95 -19 102 -4 7 -22 -19 -46 -68 -21 -44 -42 -80
-45 -80 -3 0 -24 36 -45 80 -21 44 -42 80 -45 80 -4 0 -12 -43 -19 -97z"/>
<path d="M6715 4021 c-69 -17 -126 -63 -161 -131 -24 -45 -25 -153 -3 -196 15
-29 15 -35 -6 -93 -12 -33 -19 -61 -15 -61 4 0 32 9 64 20 51 17 60 18 97 5
187 -66 369 102 314 290 -35 122 -165 196 -290 166z m156 -54 c146 -77 144
-283 -5 -359 -50 -25 -130 -28 -175 -5 -24 12 -39 14 -57 7 -47 -18 -53 -14
-41 25 8 29 7 42 -6 71 -32 66 -16 166 36 223 57 62 170 79 248 38z"/>
<path d="M6672 3888 c-16 -16 -15 -63 2 -96 44 -83 167 -140 210 -96 23 22 20
31 -16 50 -29 15 -32 15 -44 -1 -16 -21 -43 -14 -78 22 -20 20 -25 33 -21 53
7 32 -10 80 -28 80 -7 0 -18 -5 -25 -12z"/>
<path d="M14144 4001 c-55 -34 -66 -73 -62 -236 3 -126 5 -147 24 -172 39 -53
75 -63 224 -63 149 0 185 10 224 63 18 25 21 46 24 164 4 160 -9 209 -62 243
-30 18 -50 20 -187 20 -133 0 -158 -3 -185 -19z m361 -45 c31 -31 38 -73 34
-211 -4 -110 -5 -116 -32 -142 l-27 -28 -150 0 -150 0 -27 28 c-27 26 -28 32
-31 143 -4 140 2 179 33 210 23 23 29 24 175 24 146 0 152 -1 175 -24z"/>
<path d="M14251 3875 c-59 -50 -64 -131 -10 -184 52 -52 126 -52 178 -1 54 54
47 140 -14 188 -40 32 -114 30 -154 -3z m133 -36 c19 -15 26 -30 26 -55 0 -47
-13 -69 -50 -84 -89 -37 -158 88 -78 144 31 22 70 20 102 -5z"/>
<path d="M14900 3909 l0 -70 -22 15 c-47 33 -115 9 -143 -50 -19 -41 -16 -117
7 -153 27 -43 99 -51 139 -15 15 13 17 13 22 -1 4 -8 13 -15 22 -15 13 0 15
25 15 180 0 173 -1 180 -20 180 -18 0 -20 -7 -20 -71z m-12 -91 c19 -16 16
-127 -5 -150 -20 -22 -76 -24 -97 -2 -19 18 -22 104 -5 135 19 36 72 44 107
17z"/>
<path d="M16530 3909 l0 -70 -22 15 c-108 76 -214 -120 -117 -217 25 -25 35
-29 66 -24 19 4 44 14 54 23 17 15 19 15 25 0 3 -9 12 -16 20 -16 11 0 14 33
14 180 0 173 -1 180 -20 180 -18 0 -20 -7 -20 -71z m-12 -91 c19 -16 16 -127
-5 -150 -20 -22 -70 -23 -95 -1 -21 18 -25 101 -7 134 19 36 72 44 107 17z"/>
<path d="M7240 3937 c-88 -30 -109 -218 -33 -289 18 -17 37 -23 68 -23 73 0
115 58 114 157 -1 121 -62 184 -149 155z m87 -49 c14 -16 18 -37 18 -105 0
-80 -1 -86 -28 -109 -35 -30 -49 -30 -83 0 -24 20 -28 33 -32 88 -8 127 61
197 125 126z"/>
<path d="M7503 3939 c-60 -17 -82 -83 -42 -125 l20 -22 -25 -25 c-47 -47 -28
-115 40 -137 75 -25 144 14 144 81 0 28 -6 42 -26 58 l-25 20 20 20 c40 40 22
103 -34 127 -19 8 -36 14 -37 13 -2 0 -17 -5 -35 -10z"/>
<path d="M8793 3935 c-55 -24 -70 -81 -31 -122 l21 -23 -26 -21 c-35 -27 -36
-77 -3 -116 21 -25 31 -28 81 -28 50 0 60 3 81 28 33 39 32 89 -3 116 l-26 21
21 23 c39 42 24 99 -33 123 -41 17 -42 17 -82 -1z"/>
<path d="M9063 3939 c-38 -11 -68 -51 -58 -76 5 -16 10 -13 34 15 22 28 32 33
61 30 66 -6 73 -77 9 -101 -35 -14 -38 -37 -5 -37 49 0 75 -60 40 -94 -35 -36
-91 -28 -114 14 -12 23 -40 27 -40 6 0 -27 44 -67 81 -72 101 -16 173 100 94
152 l-25 16 25 20 c49 38 22 117 -45 131 -14 2 -40 1 -57 -4z"/>
<path d="M10764 3943 c-12 -2 -34 -18 -50 -34 -26 -27 -29 -38 -32 -108 -5
-96 14 -145 65 -169 30 -14 38 -15 75 -2 56 20 78 63 78 153 0 114 -52 175
-136 160z m70 -48 c45 -45 41 -189 -5 -227 -70 -58 -141 53 -109 170 13 51 33
72 70 72 16 0 36 -7 44 -15z"/>
<path d="M11012 3939 c-59 -17 -77 -108 -27 -137 15 -8 13 -11 -8 -25 -33 -22
-43 -67 -23 -106 34 -65 158 -65 192 0 20 39 10 84 -22 106 -24 16 -24 16 -4
30 41 29 15 133 -34 133 -8 0 -20 2 -28 4 -7 2 -28 0 -46 -5z"/>
<path d="M11533 3939 c-59 -17 -81 -101 -34 -131 18 -11 18 -13 -10 -39 -62
-57 -12 -149 82 -149 38 0 87 30 98 61 13 36 -3 86 -30 94 -24 8 -24 17 1 33
14 9 20 23 20 50 0 64 -58 100 -127 81z"/>
<path d="M11803 3943 c-77 -14 -116 -167 -66 -265 14 -28 59 -58 88 -58 35 0
82 32 98 66 21 42 22 142 3 187 -23 54 -68 80 -123 70z m80 -65 c25 -34 27
-139 3 -186 -33 -65 -106 -47 -127 30 -13 51 -6 131 16 165 22 34 80 29 108
-9z"/>
<path d="M12063 3943 c-21 -4 -73 -56 -73 -73 0 -20 30 -18 41 3 16 30 28 37
67 37 66 0 68 -93 2 -107 -37 -7 -34 -26 6 -33 56 -10 64 -80 12 -109 -21 -12
-30 -12 -56 -2 -17 7 -34 22 -37 32 -4 10 -15 19 -26 19 -23 0 -23 -3 -4 -40
17 -34 77 -57 120 -46 71 18 100 104 51 147 -25 22 -25 22 -5 38 23 18 28 66
10 98 -14 27 -65 44 -108 36z"/>
<path d="M12313 3939 c-59 -17 -80 -102 -33 -132 17 -10 16 -13 -11 -38 -46
-43 -34 -110 26 -134 44 -19 69 -19 111 1 60 29 67 104 12 143 -19 13 -19 13
1 28 42 29 15 133 -35 133 -7 0 -18 2 -26 4 -7 2 -28 0 -45 -5z"/>
<path d="M7726 3888 c-4 -29 -10 -64 -13 -77 -6 -23 -4 -24 35 -18 77 13 125
-29 105 -90 -14 -42 -55 -59 -104 -43 -43 14 -59 9 -40 -14 31 -37 114 -31
155 11 21 20 26 36 26 73 0 63 -32 95 -96 95 -47 0 -52 9 -38 63 6 20 13 22
65 22 46 0 59 3 59 15 0 12 -15 15 -74 15 l-73 0 -7 -52z"/>
<path d="M8029 3877 c-26 -35 -54 -78 -64 -96 -32 -63 1 -142 66 -156 38 -8
95 11 114 38 15 22 20 82 9 112 -11 27 -62 48 -102 40 l-35 -6 39 48 c72 87
69 83 43 83 -18 -1 -37 -18 -70 -63z m80 -113 c27 -35 26 -59 -4 -89 -45 -46
-115 -19 -115 45 0 65 79 94 119 44z"/>
<path d="M8266 3835 c-42 -57 -75 -109 -71 -115 3 -5 40 -10 81 -10 l74 0 0
-40 c0 -29 4 -40 15 -40 11 0 15 11 15 40 0 36 3 40 25 40 16 0 25 6 25 15 0
9 -9 15 -25 15 l-25 0 0 100 c0 134 -11 133 -114 -5z"/>
<path d="M8470 3925 c0 -12 16 -15 85 -15 47 0 85 -2 85 -5 0 -3 -29 -64 -65
-135 -36 -71 -65 -132 -65 -135 0 -3 8 -5 18 -5 13 0 37 39 90 148 40 81 72
150 72 155 0 4 -49 7 -110 7 -91 0 -110 -3 -110 -15z"/>
<path d="M9306 3835 c-42 -57 -75 -109 -71 -115 3 -5 40 -10 81 -10 l74 0 0
-40 c0 -29 4 -40 15 -40 11 0 15 11 15 40 0 36 3 40 25 40 16 0 25 6 25 15 0
9 -9 15 -25 15 l-25 0 0 100 c0 134 -11 133 -114 -5z"/>
<path d="M9510 3925 c0 -12 16 -15 85 -15 47 0 85 -2 85 -5 0 -3 -29 -64 -65
-135 -36 -71 -65 -132 -65 -135 0 -3 8 -5 18 -5 13 0 37 39 90 148 40 81 72
150 72 155 0 4 -49 7 -110 7 -91 0 -110 -3 -110 -15z"/>
<path d="M9770 3925 c0 -12 16 -15 85 -15 47 0 85 -3 85 -7 -1 -5 -31 -68 -69
-141 -60 -117 -65 -133 -47 -130 16 2 37 35 87 134 98 192 101 174 -30 174
-92 0 -111 -3 -111 -15z"/>
<path d="M10030 3925 c0 -12 16 -15 85 -15 47 0 85 -3 85 -7 -1 -5 -31 -68
-69 -141 -60 -117 -65 -133 -47 -130 16 2 37 35 87 134 98 192 101 174 -30
174 -92 0 -111 -3 -111 -15z"/>
<path d="M11202 3928 c3 -9 33 -14 92 -16 48 -1 86 -6 84 -10 -2 -4 -34 -67
-71 -139 -59 -117 -65 -133 -47 -133 16 0 35 30 90 140 38 77 70 147 70 155 0
12 -19 15 -111 15 -84 0 -110 -3 -107 -12z"/>
<path d="M12607 3898 c-74 -93 -117 -156 -117 -171 0 -14 12 -17 75 -17 l75 0
0 -39 c0 -24 5 -41 14 -44 20 -8 26 2 26 44 0 30 4 38 20 41 12 2 21 8 21 13
0 6 -9 11 -21 13 -19 3 -20 10 -20 103 0 91 -2 99 -19 99 -11 0 -35 -19 -54
-42z"/>
<path d="M12820 3900 c-36 -31 -43 -41 -33 -51 10 -10 19 -7 43 16 l30 29 0
-122 0 -122 -36 0 c-24 0 -34 -4 -32 -12 5 -14 115 -23 156 -13 34 8 26 25
-13 25 l-35 0 0 145 c0 168 -3 172 -80 105z"/>
<path d="M13020 3925 c0 -12 16 -15 85 -15 54 0 85 -4 85 -11 0 -6 -30 -68
-67 -139 -65 -123 -73 -147 -42 -135 14 5 159 284 159 305 0 6 -44 10 -110 10
-91 0 -110 -3 -110 -15z"/>
<path d="M13280 3925 c0 -12 17 -15 91 -15 l91 0 -71 -134 c-39 -74 -71 -139
-71 -144 0 -6 8 -8 18 -5 11 3 45 58 90 149 40 79 72 149 72 154 0 6 -44 10
-110 10 -91 0 -110 -3 -110 -15z"/>
<path d="M13540 3925 c0 -12 17 -15 91 -15 l91 0 -71 -134 c-39 -74 -71 -137
-71 -140 0 -3 8 -6 18 -6 12 0 37 40 90 145 39 80 72 150 72 155 0 6 -44 10
-110 10 -91 0 -110 -3 -110 -15z"/>
<path d="M17205 3900 c-5 -30 -11 -40 -26 -40 -10 0 -19 -7 -19 -15 0 -8 9
-15 20 -15 19 0 20 -7 20 -93 0 -78 3 -97 18 -110 23 -21 62 -22 88 -3 21 16
13 22 -36 28 -24 3 -25 6 -28 91 l-3 87 36 0 c24 0 35 4 35 15 0 10 -11 15
-35 15 -34 0 -35 1 -35 40 0 28 -4 40 -14 40 -9 0 -17 -15 -21 -40z"/>
<path d="M15038 3855 c-60 -33 -41 -102 33 -127 51 -17 69 -40 53 -65 -12 -19
-59 -22 -101 -8 -17 5 -23 3 -23 -8 0 -21 63 -41 105 -33 39 8 65 38 65 77 0
31 -22 52 -72 68 -54 18 -66 37 -40 63 19 19 25 20 59 10 41 -13 63 -3 39 17
-24 20 -88 23 -118 6z"/>
<path d="M15300 3853 c-17 -12 -25 -13 -28 -5 -2 7 -12 12 -23 12 -18 0 -19
-8 -19 -120 0 -113 1 -120 20 -120 19 0 20 7 20 95 0 103 7 115 64 115 36 0
46 -26 46 -124 0 -79 2 -86 20 -86 18 0 20 7 20 86 0 105 9 124 56 124 44 0
54 -23 54 -131 0 -72 2 -79 20 -79 19 0 20 7 20 90 0 99 -10 132 -47 149 -36
17 -59 13 -89 -12 l-27 -23 -23 23 c-27 27 -51 29 -84 6z"/>
<path d="M15923 3854 c-55 -27 -77 -101 -49 -167 18 -43 46 -67 88 -73 41 -7
108 18 108 40 0 19 1 19 -44 1 -60 -25 -101 -4 -121 63 -6 22 -5 22 84 22 90
0 91 0 91 25 0 83 -79 127 -157 89z"/>
<path d="M16693 3854 c-97 -48 -73 -220 33 -240 33 -6 99 10 109 27 13 21 -7
27 -40 13 -58 -24 -106 -1 -120 59 l-7 27 91 0 c91 0 91 0 91 25 0 41 -27 82
-61 94 -42 14 -58 14 -96 -5z"/>
<path d="M17000 3863 c-8 -3 -23 -12 -32 -21 -16 -14 -18 -13 -18 1 0 10 -8
17 -20 17 -19 0 -20 -7 -20 -120 0 -113 1 -120 20 -120 18 0 20 7 20 88 0 100
12 122 66 122 47 0 54 -15 54 -117 l0 -93 26 0 26 0 -4 101 c-3 96 -4 102 -31
125 -27 23 -55 29 -87 17z"/>
<path d="M17393 3855 c-38 -16 -47 -52 -10 -40 12 4 39 9 59 12 33 4 39 2 49
-20 17 -37 5 -57 -31 -57 -43 0 -96 -24 -110 -50 -37 -69 69 -120 131 -64 15
13 17 13 22 -1 4 -8 14 -15 23 -15 14 0 15 13 12 101 -3 96 -4 102 -31 125
-32 27 -67 30 -114 9z"/>
<path d="M17784 3861 c-31 -13 -62 -58 -70 -97 -10 -53 20 -121 61 -141 36
-17 88 -12 120 11 30 21 9 39 -25 21 -60 -31 -110 7 -110 83 0 77 39 112 100
90 20 -7 35 -7 41 -1 25 25 -72 53 -117 34z"/>
<path d="M17992 3853 c-34 -17 -38 -40 -6 -35 71 13 86 13 99 2 8 -7 15 -25
15 -41 0 -26 -3 -29 -35 -29 -100 0 -158 -79 -92 -125 28 -19 60 -19 100 1 21
12 32 13 35 5 2 -6 10 -11 18 -11 11 0 14 20 14 94 0 111 -3 122 -41 141 -36
19 -66 19 -107 -2z"/>
<path d="M18433 3856 c-90 -41 -82 -205 12 -236 40 -13 91 -7 120 14 31 23 10
35 -35 20 -27 -9 -47 -11 -64 -4 -28 10 -56 47 -56 72 0 16 10 18 91 18 l92 0
-6 37 c-12 72 -86 110 -154 79z"/>
</g>
</svg>
